<svg viewBox="0 0 177 60" fill="none" xmlns="http://www.w3.org/2000/svg" preserveAspectRatio="none">
<path d="M-8.57873 7.90215C-6.12783 3.15377 -0.977728 0.435541 4.32548 1.0913L34.1633 4.78085C37.5473 5.1993 40.9626 5.30723 44.3663 5.1033L88.5 2.45902L132.783 5.11226C136.088 5.31024 139.403 5.20774 142.689 4.80604L173.066 1.09219C178.396 0.440553 183.542 3.28653 185.823 8.14776C186.598 9.79947 187 11.6016 187 13.4261V46.1876C187 48.0353 186.605 49.8615 185.841 51.5438C183.545 56.5986 178.283 59.6282 172.759 59.0756L141.937 55.9925C139.149 55.7138 136.345 55.6439 133.548 55.7836L88.5 58.0328L43.5803 55.79C40.6975 55.646 37.808 55.7197 34.9363 56.0102L4.62514 59.0768C-0.867584 59.6325 -6.13171 56.734 -8.59909 51.7952C-9.52039 49.9512 -10 47.918 -10 45.8566V13.7545C-10 11.7182 -9.51267 9.71158 -8.57873 7.90215Z" fill="url(#paint0_linear_20_926)" fill-opacity="0.25"/>
<defs>
<linearGradient id="paint0_linear_20_926" x1="88.5" y1="1.61264e-06" x2="88.4986" y2="60" gradientUnits="userSpaceOnUse">
<stop stop-color="#99DDD5"/>
<stop offset="1" stop-color="#47849A"/>
</linearGradient>
</defs>
</svg>