<svg width="17" height="23" viewBox="0 0 17 23" fill="none" xmlns="http://www.w3.org/2000/svg">
<path d="M7.85366 3.17976C7.85366 -1.05924 1.36517 -1.0606 1.36585 3.17976V12.164C0.522439 12.9947 0 14.1464 0 15.419C0 18.5 0.5 18 4.60976 17.6648C4.57488 17.6677 9.21951 15.419 9.21951 15.419C9.21951 14.1464 8.69707 12.9947 7.85366 12.164V3.17976ZM4.60976 17.2092C0.5 17 1.02439 17.3579 1.02439 15.3898C1.02439 14.3358 1.48468 13.389 2.2161 12.7368L2.21951 12.7341L2.22361 12.726C2.31239 12.6432 2.37044 12.5292 2.38137 12.4023V12.4002C2.38205 12.3907 2.38615 12.3839 2.38683 12.3744L2.39093 12.3547V3.17908C2.38888 3.14311 2.38751 3.10103 2.38751 3.05827C2.38751 1.90181 3.33063 0.964562 4.49434 0.964562C4.53532 0.964562 4.57629 0.965919 4.61659 0.967955H4.61112C4.64595 0.965919 4.68624 0.964562 4.72722 0.964562C5.89093 0.964562 6.83405 1.90181 6.83405 3.05827C6.83405 3.10103 6.83268 3.14311 6.82995 3.18451V3.17908V12.3547L6.83405 12.3744L6.83883 12.3989C6.84907 12.5285 6.90781 12.6432 6.99659 12.726L7.00068 12.7341C7.73551 13.3897 8.1958 14.3365 8.1958 15.3898L8.68975 15.6756L5.24455 17.3497L4.60976 17.2092ZM5.12195 13.6035V8.26506C5.12195 7.98409 4.89249 7.75605 4.60976 7.75605C4.32702 7.75605 4.09756 7.98409 4.09756 8.26506V13.6035C3.30263 13.8329 2.73171 14.5496 2.73171 15.3993C2.73171 16.6827 4.29289 15.5 5 15.5C5.5 15.5 6 16 6.4878 15.3993C6.4878 14.5496 5.91688 13.8329 5.13493 13.6069L5.12195 13.6035ZM11.7805 0.629297C10.5546 0.629297 9.56098 1.61677 9.56098 2.83499C9.56098 4.05321 10.5546 5.04068 11.7805 5.04068C13.0063 5.04068 14 4.05321 14 2.83499C13.9986 1.61745 13.0057 0.630655 11.7805 0.629297ZM11.7805 4.02267C11.1208 4.02267 10.5854 3.49059 10.5854 2.83499C10.5854 2.17939 11.1208 1.64731 11.7805 1.64731C12.4402 1.64731 12.9756 2.17939 12.9756 2.83499C12.9749 3.49059 12.4402 4.02199 11.7805 4.02267Z" fill="#13263D"/>
<path d="M13.4302 22C12.0154 22 10.8605 20.8765 10.8605 19.5V19.2059C10.8605 18.9647 11.0661 18.7647 11.314 18.7647C11.5619 18.7647 11.7675 18.9647 11.7675 19.2059V19.5C11.7675 20.3941 12.5112 21.1176 13.4302 21.1176C14.3493 21.1176 15.093 20.3941 15.093 19.5C15.093 18.6059 14.3493 17.8824 13.4302 17.8824H0.999997C0.75209 17.8824 0.546509 17.6824 0.546509 17.4412C0.546509 17.2 0.75209 17 0.999997 17H13.4302C14.8451 17 16 18.1235 16 19.5C16 20.8765 14.8451 22 13.4302 22Z" fill="#13263D" stroke="#13263D" stroke-width="0.25"/>
<path d="M11.9061 16H3.29856C3.049 16 2.84204 15.8023 2.84204 15.564C2.84204 15.3256 3.049 15.1279 3.29856 15.1279H11.9061C12.5574 15.1279 13.087 14.6221 13.087 14C13.087 13.3779 12.5574 12.8721 11.9061 12.8721C11.2548 12.8721 10.7252 13.3779 10.7252 14V14.2209C10.7252 14.4593 10.5183 14.657 10.2687 14.657C10.0191 14.657 9.81218 14.4651 9.81218 14.2209V14C9.81218 12.8953 10.7496 12 11.9061 12C13.0626 12 14 12.8953 14 14C14 15.1047 13.0626 16 11.9061 16Z" fill="#13263D" stroke="#13263D" stroke-width="0.25"/>
</svg>
