<svg width="23" height="19" viewBox="0 0 23 19" fill="none" xmlns="http://www.w3.org/2000/svg">
<path d="M8.78781 9.49049L8.67598 4.17865H7.61361L3.89532 9.49049H8.78781Z" fill="white"/>
<path d="M10.8007 9.49049V0.991547H11.8631L16.6437 9.49049H10.8007Z" fill="white"/>
<path d="M19.1934 15.9355C18.4144 15.8647 17.6353 16.148 16.9979 16.7146C16.2188 17.4937 14.944 17.4937 14.0941 16.7146C13.3858 16.2188 12.6068 15.9355 11.7569 15.9355C10.907 15.8647 10.0571 16.148 9.41966 16.7146C8.99471 17.0687 8.49894 17.2812 7.93235 17.2812C7.36575 17.2812 6.86998 17.0687 6.44503 16.7146C5.73679 16.148 4.88689 15.8647 4.037 15.8647C3.1871 15.8647 2.33721 16.148 1.62896 16.7146C1.20402 17.0687 0.566596 17.2812 0 17.2812V18.6977C0.920719 18.7685 1.84144 18.4852 2.54968 17.8478C2.97463 17.4937 3.61205 17.2812 4.17865 17.2812C4.67442 17.2812 5.24101 17.4937 5.66596 17.8478C6.9408 18.981 8.92389 18.981 10.2696 17.8478C10.6945 17.4937 11.1903 17.2812 11.7569 17.2812C12.2526 17.2812 12.7484 17.4937 13.1734 17.8478C14.519 18.981 16.4313 18.981 17.777 17.8478C18.1311 17.4937 18.6977 17.2812 19.1934 17.2812C19.6892 17.2812 20.185 17.4937 20.5391 17.8478C21.1765 18.3436 21.8848 18.6269 22.6638 18.6977V17.2812C21.9556 17.2812 21.814 16.9979 21.4598 16.7146C20.8224 16.2188 20.0433 15.9355 19.1934 15.9355Z" fill="#13263D"/>
<path d="M2.83294 13.0317C2.83294 12.6068 3.18706 12.3235 3.61201 12.3235H21.2473L18.7685 14.519H18.9101C19.4767 14.519 20.0433 14.6607 20.4682 14.8732L22.2389 13.315L22.3805 13.1734C22.8763 12.6068 22.8055 11.6861 22.2389 11.1903C21.9556 11.0486 21.6723 10.907 21.3181 10.907H3.61201C2.40799 10.907 1.48727 11.8277 1.48727 13.0317V15.2981C1.8414 14.944 2.33717 14.7315 2.83294 14.519V13.0317Z" fill="#13263D"/>
<path d="M4.88687 10.1987H9.20717V4.67442C9.20717 4.24947 8.9947 3.82452 8.64057 3.54123C8.00315 3.04545 7.08243 3.1871 6.65749 3.82452L3.75368 8.00317C3.47038 8.42812 3.47038 8.99471 3.68286 9.49049C3.89533 9.91543 4.3911 10.1987 4.88687 10.1987ZM7.8615 4.67442L7.79068 8.78224H4.88687L7.8615 4.67442Z" fill="#13263D"/>
<path d="M16.9979 9.49049C17.2812 9.06554 17.2812 8.49894 16.9979 8.074L12.5359 0.708245C12.2526 0.283298 11.8277 0 11.3319 0C10.5528 0 9.91541 0.637421 9.91541 1.41649V10.1987H15.7938C16.2896 10.1987 16.7854 9.91543 16.9979 9.49049ZM11.2611 1.41649L15.7938 8.85307H11.2611V1.41649Z" fill="#13263D"/>
<path d="M21.9556 11.6152H2.83297L1.7706 14.8023L6.55125 14.2711C9.72858 13.9181 12.9352 13.9181 16.1126 14.2711L20.362 14.8023L21.9556 11.6152Z" fill="#13263D"/>
</svg>
