<svg width="18" height="18" viewBox="0 0 18 18" fill="none" xmlns="http://www.w3.org/2000/svg">
<circle cx="9" cy="9" r="7.75" fill="#13263D" stroke="#13263D" stroke-width="1.5"/>
<path d="M9.00002 4.5C8.37002 4.5 7.87502 4.995 7.87502 5.625C7.87502 6.255 8.37002 6.75 9.00002 6.75C9.63002 6.75 10.125 6.255 10.125 5.625C10.125 4.995 9.63002 4.5 9.00002 4.5ZM5.26502 6.75C5.07873 6.80982 4.91126 6.91718 4.77914 7.0615C4.64703 7.20582 4.55483 7.38211 4.51167 7.57295C4.4685 7.76379 4.47585 7.96258 4.533 8.14971C4.59015 8.33684 4.69511 8.50583 4.83752 8.64L6.88502 10.6875C6.84002 10.8675 6.75002 11.0475 6.75002 11.25C6.75002 12.4875 7.76252 13.5 9.00002 13.5C10.2375 13.5 11.25 12.4875 11.25 11.25C11.25 10.0125 10.2375 9 9.00002 9C8.79752 9 8.61752 9.09 8.43752 9.135L6.39002 7.0875C6.26692 6.95126 6.11233 6.84722 5.93976 6.78446C5.7672 6.72171 5.58189 6.70216 5.40002 6.7275C5.35507 6.7248 5.30998 6.7473 5.26502 6.75ZM12.375 6.75C11.745 6.75 11.25 7.245 11.25 7.875C11.25 8.505 11.745 9 12.375 9C13.005 9 13.5 8.505 13.5 7.875C13.5 7.245 13.005 6.75 12.375 6.75Z" fill="url(#paint0_linear_20_343)" fill-opacity="0.9"/>
<defs>
<linearGradient id="paint0_linear_20_343" x1="8.99199" y1="4.5" x2="8.99199" y2="13.5" gradientUnits="userSpaceOnUse">
<stop stop-color="#DAEBFF"/>
<stop offset="1" stop-color="#DAFFFB"/>
</linearGradient>
</defs>
</svg>