<svg width="25" height="13" viewBox="0 0 25 13" fill="none" xmlns="http://www.w3.org/2000/svg">
<path d="M23.75 4.96V7.6" stroke="#13263D" stroke-width="2" stroke-linecap="round" stroke-linejoin="round"/>
<path d="M6.05548 7.6L4.7916 4.96" stroke="#13263D" stroke-width="2" stroke-linecap="round" stroke-linejoin="round"/>
<path d="M1 6.28C1 3.79101 1 2.54647 1.74037 1.77324C2.48073 1 3.67234 1 6.05556 1H10.4792H14.9028C17.286 1 18.4776 1 19.2179 1.77324C19.9583 2.54647 19.9583 3.79101 19.9583 6.28C19.9583 8.76899 19.9583 10.0135 19.2179 10.7867C18.4776 11.56 17.286 11.56 14.9028 11.56H10.4792H6.05556C3.67234 11.56 2.48073 11.56 1.74037 10.7867C1 10.0135 1 8.76899 1 6.28Z" stroke="#13263D" stroke-width="2" stroke-linejoin="round"/>
</svg>
