<svg width="18" height="18" viewBox="0 0 18 18" fill="none" xmlns="http://www.w3.org/2000/svg">
<path fill-rule="evenodd" clip-rule="evenodd" d="M16.5 8.41326C16.5 7.83322 16.2482 7.28176 15.8099 6.90188L9.65493 1.56761C9.27907 1.24186 8.72093 1.24186 8.34507 1.56761L2.19014 6.90188C1.75181 7.28176 1.5 7.83322 1.5 8.41326L1.5 15C2 16 2 16 3 16.5H5.5L5.5 13.1975C5.5 13.0671 5.52366 12.9374 5.58088 12.8202C6.1475 11.6602 7.57375 10.5 9 10.5C10.4262 10.5 11.8525 11.6602 12.4191 12.8202C12.4763 12.9374 12.5 13.0671 12.5 13.1975V16.5H15C16 16 16 16 16.5 15V8.41326Z" fill="#13263D" stroke="#13263D" stroke-width="2" stroke-linejoin="round"/>
</svg>
