<svg width="18" height="18" viewBox="0 0 18 18" fill="none" xmlns="http://www.w3.org/2000/svg">
<path fill-rule="evenodd" clip-rule="evenodd" d="M9.25167 1.7219C9.08733 1.67701 8.91273 1.67701 8.74831 1.7219C8.70106 1.73482 8.6179 1.76715 8.44105 1.89273C8.25511 2.0248 8.02741 2.21382 7.67263 2.5096L2.95698 6.44102C2.37887 6.923 2.21498 7.06837 2.10104 7.22909C1.99144 7.38373 1.90979 7.55424 1.85938 7.73378C1.80698 7.9205 1.80005 8.13187 1.80005 8.85738V13.0788C1.80005 13.814 1.80078 14.3138 1.83496 14.6999C1.86825 15.076 1.92857 15.2679 2.00271 15.4017C2.17348 15.7101 2.44153 15.9615 2.77029 16.1217C2.91301 16.1912 3.11765 16.2478 3.51855 16.279C3.9302 16.3111 4.46311 16.3118 5.24702 16.3118H5.40002V13.7794C5.40002 11.9147 7.01178 10.403 9.00003 10.403C10.9882 10.403 12.6 11.9147 12.6 13.7794V16.3118H12.753C13.5369 16.3118 14.0698 16.3111 14.4814 16.279C14.8823 16.2478 15.087 16.1912 15.2297 16.1217C15.5585 15.9615 15.8265 15.7101 15.9973 15.4017C16.0715 15.2679 16.1318 15.076 16.1651 14.6999C16.1992 14.3138 16.2 13.814 16.2 13.0788V8.85738C16.2 8.13187 16.193 7.9205 16.1406 7.73378C16.0902 7.55424 16.0085 7.38373 15.8989 7.22909C15.785 7.06837 15.6211 6.923 15.043 6.44102L10.3273 2.5096C9.97257 2.21382 9.74487 2.0248 9.55893 1.89273C9.38208 1.76715 9.29892 1.73482 9.25167 1.7219ZM8.24503 0.101003C8.73814 -0.0336675 9.26184 -0.0336675 9.75495 0.101003C10.097 0.194455 10.3807 0.358787 10.6454 0.546755C10.8947 0.723783 11.1755 0.957848 11.4988 1.22738L16.2389 5.17923C16.2644 5.2005 16.2895 5.22148 16.3145 5.2422C16.784 5.63321 17.1386 5.9286 17.398 6.29446C17.6171 6.60373 17.7805 6.9448 17.8813 7.30396C18.0005 7.7288 18.0003 8.17365 18 8.76251C18 8.79374 18 8.82531 18 8.85738V13.1143C18 13.8052 18 14.3755 17.9588 14.8397C17.9162 15.322 17.8245 15.765 17.5946 16.18C17.2531 16.7967 16.7169 17.2995 16.0595 17.6198C15.617 17.8354 15.1446 17.9214 14.6304 17.9614C14.1354 18 13.5274 18 12.7907 18H12.4245C12.4175 18 12.4105 18 12.4033 18C12.2943 18 12.1641 18.0001 12.0495 17.9911C11.9166 17.9808 11.7263 17.9542 11.5277 17.8574C11.2811 17.7373 11.08 17.5487 10.9519 17.3175C10.8488 17.1312 10.8204 16.9527 10.8094 16.828C10.7998 16.7206 10.7999 16.5984 10.7999 16.4962L10.8 13.7794C10.8 12.847 9.99408 12.0912 9.00003 12.0912C8.0059 12.0912 7.2 12.847 7.2 13.7794L7.20001 16.4962C7.20005 16.5984 7.20014 16.7206 7.19059 16.828C7.17955 16.9527 7.1512 17.1312 7.04801 17.3175C6.91993 17.5487 6.71889 17.7373 6.47233 17.8574C6.27369 17.9542 6.08342 17.9808 5.9505 17.9911C5.83587 18.0001 5.70569 18 5.59668 18C5.58954 18 5.58247 18 5.57552 18H5.20925C4.47257 18 3.86458 18 3.36957 17.9614C2.85536 17.9214 2.38301 17.8354 1.94054 17.6198C1.28303 17.2995 0.74692 16.7967 0.405373 16.18C0.175533 15.765 0.0838507 15.322 0.041146 14.8397C4.33609e-05 14.3755 5.24632e-05 13.8052 6.14632e-05 13.1143V8.85738C6.14632e-05 8.82531 4.34266e-05 8.79374 3.44267e-05 8.76251C-0.000298571 8.17365 -0.000541641 7.7288 0.118725 7.30396C0.219552 6.9448 0.382855 6.60373 0.602058 6.29446C0.861363 5.9286 1.21604 5.63321 1.68554 5.24221C1.71042 5.22148 1.73561 5.2005 1.76113 5.17923L6.50124 1.22739C6.82452 0.957848 7.10525 0.723783 7.35458 0.546755C7.61926 0.358787 7.90294 0.194455 8.24503 0.101003Z" fill="#13263D"/>
</svg>
