<svg width="19" height="19" viewBox="0 0 19 19" fill="none" xmlns="http://www.w3.org/2000/svg">
<path d="M7.18269 5.54312C6.68578 5.54312 6.29535 5.94491 6.29535 6.43598C6.29535 6.92705 6.69465 7.32884 7.18269 7.32884C7.67073 7.32884 8.07 6.92705 8.07 6.43598C8.07 5.94491 7.67073 5.54312 7.18269 5.54312Z" fill="#13263D"/>
<path d="M18.1073 3.35715C17.3619 1.61608 15.7203 0.642868 13.431 0.642868H5.99502C3.14664 0.642868 0.839539 2.9643 0.839539 5.83037V13.3125C0.839539 15.6161 1.80675 17.2679 3.53707 18.0179C3.70567 18.0893 3.90088 18.0447 4.02511 17.9197L18.0097 3.84823C18.1428 3.7143 18.1871 3.51787 18.1073 3.35715ZM8.4086 9.78573C8.06253 10.125 7.60999 10.2857 7.15744 10.2857C6.70489 10.2857 6.25235 10.1161 5.90628 9.78573C5.00119 8.92858 4.00736 7.56251 4.38892 5.93751C4.72611 4.4643 6.02164 3.80358 7.15744 3.80358C8.29324 3.80358 9.58877 4.4643 9.92596 5.94644C10.2986 7.56251 9.30482 8.92858 8.4086 9.78573Z" fill="#13263D"/>
<path d="M16.3405 17.1871C16.5357 17.3835 16.5091 17.7049 16.2695 17.8389C15.4887 18.2764 14.5392 18.4996 13.43 18.4996H5.99409C5.73676 18.4996 5.63028 18.196 5.80775 18.0174L11.1673 12.6246C11.3448 12.446 11.6198 12.446 11.7973 12.6246L16.3405 17.1871Z" fill="#13263D"/>
<path d="M18.5879 5.8294V13.3115C18.5879 14.4276 18.3661 15.3919 17.9313 16.1687C17.7982 16.4097 17.4788 16.4276 17.2836 16.2401L12.7403 11.6687C12.5629 11.4901 12.5629 11.2133 12.7403 11.0347L18.0999 5.6419C18.2863 5.46333 18.5879 5.57047 18.5879 5.8294Z" fill="#13263D"/>
</svg>