<svg width="18" height="18" viewBox="0 0 18 18" fill="none" xmlns="http://www.w3.org/2000/svg">
<path d="M17.3334 6.50002V11.5C17.3334 13.5833 16.9167 15.0417 15.9834 15.9833L10.6667 10.6667L17.1084 4.22502C17.2584 4.88335 17.3334 5.63335 17.3334 6.50002Z" stroke="#13263D" stroke-linecap="round" stroke-linejoin="round"/>
<path d="M17.1084 4.225L4.22501 17.1083C1.71668 16.5333 0.666687 14.8 0.666687 11.5V6.5C0.666687 2.33334 2.33335 0.666672 6.50002 0.666672H11.5C14.8 0.666672 16.5334 1.71667 17.1084 4.225Z" stroke="#13263D" stroke-linecap="round" stroke-linejoin="round"/>
<path d="M15.9834 15.9833C15.0417 16.9167 13.5834 17.3333 11.5 17.3333H6.50004C5.63338 17.3333 4.88337 17.2583 4.22504 17.1083L10.6667 10.6667L15.9834 15.9833Z" stroke="#13263D" stroke-linecap="round" stroke-linejoin="round"/>
<path d="M4.20004 5.64998C4.7667 3.20831 8.43335 3.20831 9.00002 5.64998C9.32502 7.08331 8.42502 8.3 7.63335 9.05C7.05836 9.6 6.15004 9.6 5.56671 9.05C4.77504 8.3 3.8667 7.08331 4.20004 5.64998Z" stroke="#13263D"/>
<path d="M6.57886 6.24997H6.58717" stroke="#13263D" stroke-linecap="round" stroke-linejoin="round"/>
</svg>
