<svg width="22" height="17" viewBox="0 0 22 17" fill="none" xmlns="http://www.w3.org/2000/svg">
<path d="M8.26845 1.622C8.08807 1.44386 8 1.21772 8 0.943555C8 0.669395 8.08807 0.443248 8.26845 0.265114C8.44882 0.0869795 8.67781 0 8.95542 0H21.0446C21.3222 0 21.5512 0.0869795 21.7316 0.265114C21.9119 0.443248 22 0.669395 22 0.943555C22 1.21772 21.9119 1.44386 21.7316 1.622C21.5512 1.80013 21.3222 1.88711 21.0446 1.88711H8.95542C8.67781 1.88711 8.44882 1.80013 8.26845 1.622ZM21.7316 7.82399C21.9119 8.00213 22 8.22828 22 8.50244C22 8.7766 21.9119 9.00274 21.7316 9.18088C21.5512 9.35901 21.3222 9.44599 21.0446 9.44599H0.955419C0.677812 9.44599 0.448821 9.35901 0.268447 9.18088C0.0880733 9.00274 0 8.7766 0 8.50244C0 8.22828 0.0880733 8.00213 0.268447 7.82399C0.448821 7.64586 0.677812 7.55888 0.955419 7.55888H21.0446C21.3222 7.55888 21.5512 7.64586 21.7316 7.82399ZM13.7316 15.378C13.9119 15.5561 14 15.7823 14 16.0564C14 16.3306 13.9119 16.5568 13.7316 16.7349C13.5512 16.913 13.3222 17 13.0446 17H0.955419C0.677812 17 0.448821 16.913 0.268447 16.7349C0.0880733 16.5568 0 16.3306 0 16.0564C0 15.7823 0.0880733 15.5561 0.268447 15.378C0.448821 15.1999 0.677812 15.1129 0.955419 15.1129H13.0446C13.3222 15.1129 13.5512 15.204 13.7316 15.378Z" fill="#13263D"/>
</svg>