<svg width="16" height="15" viewBox="0 0 16 15" fill="none" xmlns="http://www.w3.org/2000/svg">
<path d="M0 2C0 0.895431 0.895431 0 2 0H14C15.1046 0 16 0.895431 16 2V5.5H14.5V2.5C14.5 1.94772 14.0523 1.5 13.5 1.5H2.5C1.94772 1.5 1.5 1.94772 1.5 2.5V9.5C1.5 10.0523 1.94772 10.5 2.5 10.5H13.5C14.0523 10.5 14.5 10.0523 14.5 9.5V5.5H16V10C16 11.1046 15.1046 12 14 12H9V13.5H11.75C12.1642 13.5 12.5 13.8358 12.5 14.25V14.25C12.5 14.6642 12.1642 15 11.75 15H4.25C3.83579 15 3.5 14.6642 3.5 14.25V14.25C3.5 13.8358 3.83579 13.5 4.25 13.5H7V12H2C0.89543 12 0 11.1046 0 10V2Z" fill="#13263D"/>
</svg>
