<svg width="16" height="24" viewBox="-2 -2 20 28" fill="none" xmlns="http://www.w3.org/2000/svg">
<path d="M7.99999 17.5855C7.66483 17.593 7.33151 17.5339 7.01939 17.4115C6.70727 17.2892 6.42256 17.106 6.18181 16.8727C6.01937 16.7251 5.88906 16.5456 5.79897 16.3454C5.70889 16.1452 5.66096 15.9286 5.65817 15.7091C5.65817 15.4661 5.56163 15.233 5.38978 15.0611C5.21793 14.8893 4.98485 14.7927 4.74181 14.7927C4.62215 14.7927 4.50368 14.8165 4.39331 14.8627C4.28293 14.909 4.18286 14.9767 4.09893 15.062C4.015 15.1473 3.94887 15.2484 3.90442 15.3595C3.85996 15.4706 3.83806 15.5894 3.83999 15.7091C3.84074 16.1695 3.93528 16.6249 4.11783 17.0475C4.30039 17.4701 4.56714 17.8511 4.90181 18.1673C5.73004 18.9734 6.84428 19.4181 7.99999 19.4036C8.12903 19.42 8.26007 19.4087 8.38439 19.3705C8.50872 19.3323 8.62349 19.268 8.72108 19.182C8.81866 19.096 8.89682 18.9903 8.95035 18.8717C9.00389 18.7532 9.03158 18.6246 9.03158 18.4945C9.03158 18.3645 9.00389 18.2359 8.95035 18.1174C8.89682 17.9988 8.81866 17.893 8.72108 17.807C8.62349 17.721 8.50872 17.6568 8.38439 17.6186C8.26007 17.5804 8.12903 17.5691 7.99999 17.5855Z" fill="#13263D"/>
<path d="M9.81818 1.81818C9.54182 0.334545 8.62545 0 8 0C7.37455 0 6.45818 0.334545 6.18182 1.81818C5.09091 7.56364 0 10.1818 0 15.7382C0.0646206 17.7972 0.943039 19.7466 2.44268 21.159C3.94232 22.5714 5.9408 23.3315 8 23.2727C10.0592 23.3315 12.0577 22.5714 13.5573 21.159C15.057 19.7466 15.9354 17.7972 16 15.7382C16 10.1818 10.9091 7.56364 9.81818 1.81818ZM8 21.4545C6.42291 21.5136 4.88672 20.9451 3.728 19.8736C2.56927 18.8022 1.88251 17.3151 1.81818 15.7382C1.81818 13.3236 3.05455 11.52 4.49455 9.44C6.1808 7.29581 7.37728 4.80851 8 2.15273C8.61602 4.80096 9.80239 7.28292 11.4764 9.42546C12.9309 11.5055 14.1527 13.3091 14.1527 15.7236C14.0921 17.2979 13.411 18.7842 12.2582 19.8579C11.1054 20.9317 9.57457 21.5057 8 21.4545Z" fill="#13263D"/>
</svg>