<svg width="19" height="16" viewBox="0 0 19 16" fill="none" xmlns="http://www.w3.org/2000/svg">
<path d="M18.332 11C18.2171 11 18.1022 10.9757 17.9962 10.9109L15.7871 9.69548C14.6384 9.06347 13.2069 9.06347 12.0493 9.69548C12.0493 9.69548 7.01778 9.69548 6.95069 9.69548C5.80196 9.06347 4.37046 9.06347 3.21289 9.69548L1.00379 10.9109C0.685683 11.081 0.279209 10.9919 0.0936445 10.7002C-0.0919198 10.4166 0.00528049 10.0358 0.323391 9.86563L2.53249 8.65024C4.10537 7.78326 5.37781 7.63302 6.95069 8.5V9.69548H12.0493V8.5C13.6222 7.63302 14.8946 7.78326 16.4675 8.65024L18.6766 9.86563C18.9947 10.0358 19.0919 10.4085 18.9064 10.7002C18.7738 10.8947 18.5529 11 18.332 11Z" fill="#13263D"/>
<path d="M9.5 15L8.25 12.8" stroke="#13263D" stroke-width="1.25" stroke-linecap="round"/>
<path d="M9.5 15L10.75 12.8" stroke="#13263D" stroke-width="1.25" stroke-linecap="round"/>
<path d="M8.25 12.8H10.75" stroke="#13263D" stroke-width="1.25" stroke-linecap="round"/>
<path d="M9.5 4.55V14.55" stroke="#13263D" stroke-width="1.25" stroke-linecap="round"/>
<path d="M9.5 3.99998L8.25 6.19999" stroke="#13263D" stroke-width="1.25" stroke-linecap="round"/>
<path d="M9.5 3.99998L10.75 6.19999" stroke="#13263D" stroke-width="1.25" stroke-linecap="round"/>
<path d="M8.25 6.19998H10.75" stroke="#13263D" stroke-width="1.25" stroke-linecap="round"/>
<path d="M18.332 7.07998C18.2171 7.07998 18.1022 7.05567 17.9962 6.99085L15.7871 5.77545C14.6384 5.14345 13.2069 5.14345 12.0493 5.77545C12.0493 5.77545 7.01778 5.77545 6.95069 5.77545C5.80196 5.14345 4.37046 5.14345 3.21289 5.77545L1.00379 6.99085C0.685683 7.161 0.279209 7.07187 0.0936445 6.78018C-0.0919198 6.49659 0.00528049 6.11576 0.323391 5.94561L2.53249 4.73021C4.10537 3.86323 5.37781 3.71299 6.95069 4.57997V5.77545H12.0493V4.57997C13.6222 3.71299 14.8946 3.86323 16.4675 4.73021L18.6766 5.94561C18.9947 6.11576 19.0919 6.48848 18.9064 6.78018C18.7738 6.97464 18.5529 7.07998 18.332 7.07998Z" fill="#13263D"/>
<path d="M18.332 15.08C18.2171 15.08 18.1022 15.0557 17.9962 14.9908L15.7871 13.7755C14.6384 13.1434 13.2069 13.1434 12.0493 13.7755C12.0493 13.7755 7.01778 13.7755 6.95069 13.7755C5.80196 13.1434 4.37046 13.1434 3.21289 13.7755L1.00379 14.9908C0.685683 15.161 0.279209 15.0719 0.0936445 14.7802C-0.0919198 14.4966 0.00528049 14.1158 0.323391 13.9456L2.53249 12.7302C4.10537 11.8632 5.37781 11.713 6.95069 12.58V13.7755H12.0493V12.58C13.6222 11.713 14.8946 11.8632 16.4675 12.7302L18.6766 13.9456C18.9947 14.1158 19.0919 14.4885 18.9064 14.7802C18.7738 14.9746 18.5529 15.08 18.332 15.08Z" fill="#13263D"/>
<path d="M18.332 3C18.2171 3 18.1022 2.97569 17.9962 2.91087L15.7871 1.69548C14.6384 1.06347 13.2069 1.06347 12.0493 1.69548C10.4764 2.56246 8.52359 2.56246 6.95069 1.69548C5.80196 1.06347 4.37046 1.06347 3.21289 1.69548L1.00379 2.91087C0.685683 3.08103 0.279209 2.9919 0.0936445 2.7002C-0.0919198 2.41661 0.00528052 2.03579 0.323391 1.86563L2.53249 0.650236C4.10537 -0.216745 6.05821 -0.216745 7.63109 0.650236C8.77984 1.28224 10.2113 1.28224 11.3689 0.650236C12.9418 -0.216745 14.8946 -0.216745 16.4675 0.650236L18.6766 1.86563C18.9947 2.03579 19.0919 2.40851 18.9064 2.7002C18.7738 2.89467 18.5529 3 18.332 3Z" fill="#13263D"/>
</svg>