<svg width="19" height="22" viewBox="0 0 19 22" fill="none" xmlns="http://www.w3.org/2000/svg">
<path d="M9.85366 3.17976C9.85366 -1.05924 3.36517 -1.0606 3.36585 3.17976V12.164C2.52244 12.9947 2 14.1464 2 15.419C2 17.949 3 15 7.5 16.5C10.046 16.5 11.2195 17.949 11.2195 15.419C11.2195 14.1464 10.6971 12.9947 9.85366 12.164V3.17976ZM7 16C4.5 15 4 16 3.02439 15.3898C3.02439 14.3358 3.48468 13.389 4.2161 12.7368L4.21951 12.7341L4.22361 12.726C4.31239 12.6432 4.37044 12.5292 4.38137 12.4023V12.4002C4.38205 12.3907 4.38615 12.3839 4.38683 12.3744L4.39093 12.3547V3.17908C4.38888 3.14311 4.38751 3.10103 4.38751 3.05827C4.38751 1.90181 5.33063 0.964564 6.49434 0.964564C6.53532 0.964564 6.57629 0.965921 6.61659 0.967957H6.61112C6.64595 0.965921 6.68624 0.964564 6.72722 0.964564C7.89093 0.964564 8.83405 1.90181 8.83405 3.05827C8.83405 3.10103 8.83268 3.14311 8.82995 3.18451V3.17908V12.3547L8.83405 12.3744L8.83883 12.3989C8.84907 12.5285 8.90781 12.6432 8.99659 12.726L9.00068 12.7341C9.73551 13.3897 10.1958 14.3365 10.1958 15.3898C10.1958 17.3579 8.98049 15.9993 7 16ZM7.12195 13.6035V8.26506C7.12195 7.98409 6.89249 7.75605 6.60976 7.75605C6.32702 7.75605 6.09756 7.98409 6.09756 8.26506V13.6035C5.30263 13.8329 4.73171 14.5496 4.73171 15.3993C5.5 16 6 15.5 6.60976 16.3052C7.64712 16.3052 8.4878 16.4302 8.4878 15.3993C8.4878 14.5496 7.91688 13.8329 7.13493 13.6069L7.12195 13.6035ZM13.7805 0.629299C12.5546 0.629299 11.561 1.61677 11.561 2.83499C11.561 4.05321 12.5546 5.04068 13.7805 5.04068C15.0063 5.04068 16 4.05321 16 2.83499C15.9986 1.61745 15.0057 0.630656 13.7805 0.629299ZM13.7805 4.02267C13.1208 4.02267 12.5854 3.49059 12.5854 2.83499C12.5854 2.17939 13.1208 1.64731 13.7805 1.64731C14.4402 1.64731 14.9756 2.17939 14.9756 2.83499C14.9749 3.49059 14.4402 4.02199 13.7805 4.02267Z" fill="#13263D"/>
<path d="M18.332 18C18.2171 18 18.1022 17.9757 17.9962 17.9109L15.7871 16.6955C14.6384 16.0635 13.2069 16.0635 12.0493 16.6955C10.4764 17.5625 8.52359 17.5625 6.95069 16.6955C5.80196 16.0635 4.37046 16.0635 3.21289 16.6955L1.00379 17.9109C0.685683 18.081 0.279209 17.9919 0.0936445 17.7002C-0.0919198 17.4166 0.00528052 17.0358 0.323391 16.8656L2.53249 15.6502C4.10537 14.7833 6.05821 14.7833 7.63109 15.6502C8.77984 16.2822 10.2113 16.2822 11.3689 15.6502C12.9418 14.7833 14.8946 14.7833 16.4675 15.6502L18.6766 16.8656C18.9947 17.0358 19.0919 17.4085 18.9064 17.7002C18.7738 17.8947 18.5529 18 18.332 18Z" fill="#13263D"/>
<path d="M18.332 22C18.2171 22 18.1022 21.9757 17.9962 21.9109L15.7871 20.6955C14.6384 20.0635 13.2069 20.0635 12.0493 20.6955C10.4764 21.5625 8.52359 21.5625 6.95069 20.6955C5.80196 20.0635 4.37046 20.0635 3.21289 20.6955L1.00379 21.9109C0.685683 22.081 0.279209 21.9919 0.0936445 21.7002C-0.0919198 21.4166 0.00528052 21.0358 0.323391 20.8656L2.53249 19.6502C4.10537 18.7833 6.05821 18.7833 7.63109 19.6502C8.77984 20.2822 10.2113 20.2822 11.3689 19.6502C12.9418 18.7833 14.8946 18.7833 16.4675 19.6502L18.6766 20.8656C18.9947 21.0358 19.0919 21.4085 18.9064 21.7002C18.7738 21.8947 18.5529 22 18.332 22Z" fill="#13263D"/>
</svg>