<svg width="26" height="19" viewBox="0 0 26 19" fill="none" xmlns="http://www.w3.org/2000/svg">
<path d="M15.5703 16.148L13.8413 16.1498V14.9942H9.22769V16.1552L7.49831 16.157C7.1804 16.1574 6.92269 16.4151 6.92233 16.7333L6.92053 17.877C6.92017 18.196 7.17896 18.4548 7.49795 18.4544L15.5703 18.4451C15.8882 18.4447 16.1459 18.187 16.1463 17.8691L16.1477 16.7254C16.1481 16.4064 15.8893 16.1476 15.5703 16.148ZM20.7614 1.15341C20.7614 0 20.7614 0 19.9345 0H3.13341C2.55923 0 2.06939 0.407655 1.97496 0.963811C-0.119546 13.3059 0.00156133 12.5461 0.00120089 12.6874C0.000119577 13.3117 0.516267 13.8408 1.17623 13.8408H11.5341H16.7131L17.8778 12.1108V11.5341L14.8863 9.41018L18.4545 3.46023C19.1116 3.46023 19.9316 7.21032 19.9345 6.58929L20.7614 1.15341ZM9.36538 2.3068H13.7025L14.0547 5.76701H9.01323L9.36538 2.3068ZM6.65597 11.534H2.56247L3.24767 7.49711H7.06723L6.65597 11.534ZM7.24312 5.76701H3.54106L4.12822 2.3068H7.59527L7.24312 5.76701ZM8.42608 11.534L8.83698 7.49711H14.2309L14.6418 11.534H8.42608ZM15.4726 2.3068H18.9397L15.8248 5.76701L15.4726 2.3068ZM17.5 10.5L14.8863 9.41018L17.8778 11.5341L17.5 10.5Z" fill="#13263D"/>
<path d="M15.4568 18.3387C15.6133 18.4361 15.7966 18.4737 15.9761 18.4453C16.1557 18.4169 16.3206 18.3242 16.4433 18.1827L25.1664 8.11573C25.2704 7.99572 25.3392 7.84627 25.3644 7.6856C25.3895 7.52494 25.3699 7.36001 25.3079 7.21093C25.2459 7.06186 25.1443 6.93508 25.0154 6.84608C24.8865 6.75708 24.7359 6.7097 24.5819 6.70971H19.9293L20.6105 0.941352C20.632 0.756985 20.595 0.570303 20.5053 0.410583C20.4157 0.250863 20.2784 0.127138 20.1152 0.0588122C19.9519 -0.00951401 19.7718 -0.0185773 19.6031 0.0330437C19.4344 0.0846647 19.2867 0.19405 19.1831 0.344046L12.8391 9.57208C12.7531 9.69719 12.7015 9.84501 12.69 9.9992C12.6784 10.1534 12.7074 10.3079 12.7737 10.4458C12.84 10.5837 12.9411 10.6994 13.0657 10.7803C13.1903 10.8612 13.3336 10.9041 13.4798 10.9043H17.1372L15.1071 17.3505C15.0496 17.5327 15.053 17.7302 15.1167 17.91C15.1803 18.0899 15.3004 18.2412 15.4568 18.3387ZM15.0373 9.22645L18.655 3.96395L18.2442 7.4446C18.2303 7.56261 18.2402 7.68241 18.2734 7.79605C18.3065 7.90969 18.3621 8.01457 18.4365 8.10374C18.5109 8.19291 18.6024 8.26433 18.7049 8.31325C18.8073 8.36218 18.9184 8.3875 19.0309 8.38754H22.7794L17.7874 14.1483L18.9896 10.3305C19.0293 10.2044 19.0401 10.0702 19.0212 9.93885C19.0023 9.80752 18.9541 9.68282 18.8807 9.57502C18.8073 9.46722 18.7107 9.3794 18.599 9.3188C18.4872 9.2582 18.3634 9.22655 18.2379 9.22645H15.0373Z" fill="#13263D"/>
</svg>
