<svg width="17" height="17" viewBox="0 0 17 17" fill="none" xmlns="http://www.w3.org/2000/svg">
<path d="M8.39003 0C3.87502 0 0.191233 3.56515 0.000944398 8.03309C-0.01206 8.33951 0.221934 8.35657 0.221934 8.35657H1.64668C1.92362 8.35657 1.97215 8.19854 1.9787 8.05698C2.13556 4.66902 4.9589 1.97706 8.39003 1.97706C10.2215 1.97706 11.8734 2.74473 13.043 3.97537L12.0433 4.94213C11.8694 5.15152 11.8725 5.40574 12.1293 5.47756L16.3302 6.3232C16.6898 6.41297 17.1171 6.14053 16.9704 5.58114L15.978 1.71306C15.9528 1.56662 15.7073 1.3387 15.4782 1.50219L14.3886 2.52258C12.8645 0.966141 10.7401 0 8.39003 0ZM15.3533 8.64341C15.0764 8.64341 15.0278 8.80144 15.0213 8.943C14.8644 12.331 12.0411 15.0229 8.60997 15.0229C6.77849 15.0229 5.12658 14.2558 3.95697 13.0252L4.95674 12.0579C5.13063 11.8485 5.12747 11.5943 4.87068 11.5224L0.66976 10.6768C0.310227 10.587 -0.117098 10.8595 0.029639 11.4189L1.02197 15.2869C1.04716 15.4334 1.29266 15.6613 1.52184 15.4978L2.61139 14.4774C4.13552 16.0339 6.25987 17 8.60997 17C13.125 17 16.8088 13.4349 16.9991 8.96691C17.0121 8.66049 16.7781 8.64343 16.7781 8.64343L15.3533 8.64341Z" fill="#13263D"/>
</svg>
