<svg width="19" height="19" viewBox="0 0 19 19" fill="none" xmlns="http://www.w3.org/2000/svg">
<path fill-rule="evenodd" clip-rule="evenodd" d="M9.5 1.9C5.30263 1.9 1.9 5.30263 1.9 9.5C1.9 13.6974 5.30263 17.1 9.5 17.1C13.6974 17.1 17.1 13.6974 17.1 9.5C17.1 5.30263 13.6974 1.9 9.5 1.9ZM0 9.5C0 4.25329 4.25329 0 9.5 0C14.7467 0 19 4.25329 19 9.5C19 14.7467 14.7467 19 9.5 19C4.25329 19 0 14.7467 0 9.5ZM9.33698 4.51949C9.86166 4.51949 10.287 4.94482 10.287 5.46949V10.1883L13.6375 11.462C14.128 11.6484 14.3744 12.1971 14.188 12.6875C14.0016 13.178 13.4529 13.4244 12.9625 13.238L8.99944 11.7316C8.63075 11.5913 8.38698 11.2379 8.38698 10.8435V5.46949C8.38698 4.94482 8.81229 4.51949 9.33698 4.51949Z" fill="#13263D"/>
</svg>
