<svg width="32" height="35" viewBox="0 0 32 35" fill="none" xmlns="http://www.w3.org/2000/svg">
<path d="M12.8628 16.3676C12.4054 15.9162 11.6639 15.9162 11.2066 16.3675L7.84194 19.6879C7.38456 20.1392 7.38456 20.8709 7.84194 21.3223C8.29925 21.7736 9.04075 21.7736 9.49813 21.3223L12.8628 18.0019C13.3201 17.5506 13.3201 16.8188 12.8628 16.3676Z" fill="#13263D"/>
<path d="M30.8629 5.20726V4.49145C30.8629 3.87166 30.3537 3.36921 29.7257 3.36921C29.0977 3.36921 28.5885 3.87166 28.5885 4.49145V5.20726C27.909 5.5954 27.4513 6.32012 27.4513 7.15072V11.6092C27.4513 12.4398 27.9089 13.1645 28.5885 13.5526V29.8055C28.5885 31.1836 27.4524 32.3047 26.0559 32.3047H13.3356C11.9391 32.3047 10.803 31.1836 10.803 29.8055V27.4402H14.0475V27.8696C14.0475 29.1647 15.1151 30.2182 16.4274 30.2182H23.0971C24.4094 30.2182 25.477 29.1646 25.477 27.8696V13.5524C26.1565 13.1643 26.6142 12.4396 26.6142 11.609V7.15058C26.6142 6.31999 26.1566 5.59527 25.477 5.20713V4.49138C25.477 3.87159 24.9678 3.36914 24.3398 3.36914C23.7118 3.36914 23.2026 3.87159 23.2026 4.49138V5.2072C22.5231 5.59533 22.0654 6.32005 22.0654 7.15065V11.6091C22.0654 12.4397 22.523 13.1644 23.2026 13.5526V27.8698C23.2026 27.9273 23.1553 27.974 23.0971 27.974C15.9653 27.974 16.3218 28.0217 16.3218 27.8698V27.4403H17.4639C19.2508 27.4403 20.7047 26.0056 20.7047 24.2422V3.19822C20.7046 1.43473 19.2509 0 17.4639 0H3.24086C1.45379 0 0 1.43473 0 3.19822V24.2421C0 26.0055 1.45386 27.4402 3.24086 27.4402H8.52863V29.8053C8.52863 32.421 10.685 34.549 13.3356 34.549H26.0558C28.7064 34.549 30.8628 32.421 30.8628 29.8053V13.5524C31.5423 13.1643 32 12.4396 32 11.609V7.15058C32 6.32005 31.5424 5.5954 30.8629 5.20726ZM3.24086 25.1957C2.70792 25.1958 2.27433 24.7681 2.27433 24.2421V3.19822C2.27433 2.67229 2.70792 2.24441 3.24086 2.24441H17.4639C17.9968 2.24441 18.4304 2.67229 18.4304 3.19822V24.2421C18.4304 24.7679 17.9968 25.1958 17.4639 25.1958H11.6978C12.9404 24.942 14.0825 24.338 15.0007 23.432C17.5638 20.9027 17.5638 16.7871 15.0007 14.2577C14.1616 13.4296 13.1351 12.8541 12.0159 12.5672H15.3627C16.7033 12.5672 17.7939 11.4909 17.7939 10.168V5.63899C17.7939 4.316 16.7032 3.23979 15.3627 3.23979H5.34206C4.0015 3.23979 2.91087 4.31607 2.91087 5.63899V10.1679C2.91087 11.4908 4.00157 12.5671 5.34206 12.5671H8.68891C7.56976 12.8539 6.54333 13.4295 5.70413 14.2576C3.13494 16.793 3.13481 20.8963 5.70413 23.4318C6.62217 24.3378 7.76437 24.9419 9.00701 25.1957H3.24086V25.1957ZM5.34206 10.3228C5.25556 10.3228 5.1852 10.2533 5.1852 10.168V5.63899C5.1852 5.55363 5.25563 5.4842 5.34206 5.4842H15.3627C15.4492 5.4842 15.5196 5.5537 15.5196 5.63899V10.1679C15.5196 10.2533 15.4491 10.3227 15.3627 10.3227L5.34206 10.3228ZM7.36018 21.7977C5.70645 20.1657 5.70625 17.5243 7.36018 15.892C8.15946 15.1033 9.22213 14.669 10.3523 14.669C11.4826 14.669 12.5452 15.1033 13.3445 15.892C14.9944 17.5202 14.9944 20.1694 13.3445 21.7977C12.5452 22.5864 11.4826 23.0208 10.3523 23.0208C9.22213 23.0208 8.15939 22.5863 7.36018 21.7977Z" fill="#13263D"/>
</svg>
