<svg width="14" height="13" viewBox="0 0 14 13" fill="none" xmlns="http://www.w3.org/2000/svg">
<path fill-rule="evenodd" clip-rule="evenodd" d="M6.27137 7.13979C6.27137 7.53884 6.59764 7.86232 7.00014 7.86232C7.40263 7.86232 7.7289 7.53884 7.7289 7.13979V4.97222C7.7289 4.57318 7.40263 4.24969 7.00014 4.24969C6.59764 4.24969 6.27137 4.57318 6.27137 4.97222V7.13979ZM7.7289 10.2993C7.7289 9.90023 7.40263 9.57675 7.00014 9.57675C6.59764 9.57675 6.27137 9.90023 6.27137 10.2993V10.3074C6.27137 10.7064 6.59764 11.0299 7.00014 11.0299C7.40263 11.0299 7.7289 10.7064 7.7289 10.3074V10.2993ZM5.08884 1.11491C5.92185 -0.371637 8.0782 -0.371637 8.91118 1.11491L13.7218 9.69978C14.5313 11.1445 13.4775 12.92 11.8106 12.92H2.18945C0.522424 12.92 -0.531298 11.1445 0.278273 9.69978L5.08884 1.11491Z" fill="#13263D"/>
</svg>
