<svg width="26" height="26" viewBox="2 2 24 24" fill="none" xmlns="http://www.w3.org/2000/svg">
<path d="M11.2168 12.6373L14.3308 11.6669L13.3638 14.7822L13.2481 14.4401C12.9882 13.6643 12.3729 13.0151 11.5508 12.7497L11.2168 12.6373Z" stroke="#13263D" stroke-width="3" stroke-linecap="round" stroke-linejoin="round"/>
<path d="M6.59785 19.9535C10.1629 23.3205 15.7595 23.2405 19.2268 19.7731L19.5878 19.4122C23.1292 15.8708 23.1292 10.1292 19.5878 6.58782V6.58782C15.9786 2.97862 10.1029 3.05801 6.59257 6.7634L6.24148 7.13399C2.79596 10.7709 2.95561 16.5136 6.59785 19.9535V19.9535Z" stroke="#13263D" stroke-width="1.5" stroke-linecap="round" stroke-linejoin="round"/>
<line x1="13" y1="23.75" x2="13" y2="21.25" stroke="#13263D" stroke-width="1.5" stroke-linecap="round"/>
<line x1="13" y1="23.75" x2="13" y2="21.25" stroke="#13263D" stroke-width="1.5" stroke-linecap="round"/>
<line x1="13" y1="23.75" x2="13" y2="21.25" stroke="#13263D" stroke-width="1.5" stroke-linecap="round"/>
<line x1="13" y1="5.25" x2="13" y2="2.75" stroke="#13263D" stroke-width="1.5" stroke-linecap="round"/>
<line x1="13" y1="5.25" x2="13" y2="2.75" stroke="#13263D" stroke-width="1.5" stroke-linecap="round"/>
<line x1="13" y1="5.25" x2="13" y2="2.75" stroke="#13263D" stroke-width="1.5" stroke-linecap="round"/>
<line x1="2.5" y1="12.75" x2="5" y2="12.75" stroke="#13263D" stroke-width="1.5" stroke-linecap="round"/>
<line x1="2.5" y1="12.75" x2="5" y2="12.75" stroke="#13263D" stroke-width="1.5" stroke-linecap="round"/>
<line x1="2.5" y1="12.75" x2="5" y2="12.75" stroke="#13263D" stroke-width="1.5" stroke-linecap="round"/>
<line x1="21" y1="12.75" x2="23.5" y2="12.75" stroke="#13263D" stroke-width="1.5" stroke-linecap="round"/>
<line x1="21" y1="12.75" x2="23.5" y2="12.75" stroke="#13263D" stroke-width="1.5" stroke-linecap="round"/>
<line x1="21" y1="12.75" x2="23.5" y2="12.75" stroke="#13263D" stroke-width="1.5" stroke-linecap="round"/>
</svg>