<svg width="19" height="17" viewBox="0 0 19 17" fill="none" xmlns="http://www.w3.org/2000/svg">
<path d="M14.5555 16.7738C12.581 16.7738 10.9694 15.1622 10.9694 13.1877V12.7658C10.9694 12.4198 11.2563 12.1329 11.6022 12.1329C11.9482 12.1329 12.2351 12.4198 12.2351 12.7658V13.1877C12.2351 14.4702 13.273 15.5081 14.5555 15.5081C15.8381 15.5081 16.876 14.4702 16.876 13.1877C16.876 11.9051 15.8381 10.8672 14.5555 10.8672H0.632849C0.286892 10.8672 0 10.5803 0 10.2344C0 9.88841 0.286892 9.60152 0.632849 9.60152H14.5555C16.53 9.60152 18.1417 11.2132 18.1417 13.1877C18.1417 15.1622 16.53 16.7738 14.5555 16.7738Z" fill="#13263D"/>
<path d="M14.5555 8.33582H0.632849C0.286892 8.33582 0 8.04893 0 7.70297C0 7.35701 0.286892 7.07012 0.632849 7.07012H14.5555C15.8381 7.07012 16.876 6.03225 16.876 4.74967C16.876 3.4671 15.8381 2.42923 14.5555 2.42923C13.273 2.42923 12.2351 3.4671 12.2351 4.74967V5.17157C12.2351 5.51753 11.9482 5.80442 11.6022 5.80442C11.2563 5.80442 10.9694 5.51753 10.9694 5.17157V4.74967C10.9694 2.77518 12.581 1.16353 14.5555 1.16353C16.53 1.16353 18.1417 2.77518 18.1417 4.74967C18.1417 6.72416 16.53 8.33582 14.5555 8.33582Z" fill="#13263D"/>
<path d="M6.80102 5.80534H0.632849C0.286892 5.80534 0 5.51844 0 5.17249C0 4.82653 0.286892 4.53964 0.632849 4.53964H6.80102C7.70388 4.53964 8.43799 3.80553 8.43799 2.90267C8.43799 1.9998 7.70388 1.2657 6.80102 1.2657C5.89815 1.2657 5.16405 1.9998 5.16405 2.90267V3.22331C5.16405 3.56927 4.87716 3.85616 4.5312 3.85616C4.18524 3.85616 3.89835 3.57771 3.89835 3.22331V2.90267C3.89835 1.29945 5.1978 0 6.80102 0C8.40424 0 9.70369 1.29945 9.70369 2.90267C9.70369 4.50589 8.40424 5.80534 6.80102 5.80534Z" fill="#13263D"/>
</svg>