<svg width="34" height="64" viewBox="0 0 34 64" fill="none" xmlns="http://www.w3.org/2000/svg">
<path d="M12.2111 10.1598C11.6003 10.1574 11.0747 10.0071 10.6344 9.70881C10.1964 9.41051 9.85903 8.97846 9.62229 8.41264C9.38792 7.84683 9.27191 7.16619 9.27428 6.37074C9.27428 5.57765 9.39147 4.90175 9.62584 4.34304C9.86259 3.78433 10.1999 3.35937 10.6379 3.06818C11.0783 2.77462 11.6026 2.62784 12.2111 2.62784C12.8195 2.62784 13.3427 2.77462 13.7807 3.06818C14.221 3.36174 14.5596 3.78788 14.7963 4.34659C15.033 4.90294 15.1502 5.57765 15.1479 6.37074C15.1479 7.16856 15.0295 7.85038 14.7927 8.41619C14.5584 8.98201 14.2222 9.41406 13.7842 9.71236C13.3463 10.0107 12.8219 10.1598 12.2111 10.1598ZM12.2111 8.88494C12.6277 8.88494 12.9604 8.67543 13.2089 8.25639C13.4575 7.83736 13.5806 7.20881 13.5783 6.37074C13.5783 5.81913 13.5214 5.35985 13.4078 4.9929C13.2965 4.62595 13.1379 4.35014 12.932 4.16548C12.7284 3.98082 12.4881 3.88849 12.2111 3.88849C11.7968 3.88849 11.4653 4.09564 11.2168 4.50994C10.9682 4.92424 10.8427 5.54451 10.8403 6.37074C10.8403 6.92945 10.896 7.39583 11.0072 7.76989C11.1209 8.14157 11.2807 8.42093 11.4866 8.60795C11.6926 8.79261 11.9341 8.88494 12.2111 8.88494ZM20.2251 8.63636V8.25284C20.2251 7.96165 20.2867 7.69413 20.4098 7.45028C20.5352 7.20407 20.7163 7.00758 20.9531 6.8608C21.1922 6.71165 21.4834 6.63707 21.8267 6.63707C22.1747 6.63707 22.467 6.71046 22.7038 6.85724C22.9429 7.00402 23.1228 7.20052 23.2436 7.44673C23.3667 7.69058 23.4282 7.95928 23.4282 8.25284V8.63636C23.4282 8.92756 23.3667 9.19626 23.2436 9.44247C23.1205 9.68632 22.9393 9.88163 22.7002 10.0284C22.4611 10.1776 22.1699 10.2521 21.8267 10.2521C21.4786 10.2521 21.1863 10.1776 20.9495 10.0284C20.7128 9.88163 20.5329 9.68632 20.4098 9.44247C20.2867 9.19626 20.2251 8.92756 20.2251 8.63636ZM21.2585 8.25284V8.63636C21.2585 8.80445 21.2987 8.96307 21.3792 9.11222C21.4621 9.26136 21.6112 9.33594 21.8267 9.33594C22.0421 9.33594 22.1889 9.26255 22.267 9.11577C22.3475 8.96899 22.3877 8.80919 22.3877 8.63636V8.25284C22.3877 8.08002 22.3499 7.91903 22.2741 7.76989C22.1983 7.62074 22.0492 7.54616 21.8267 7.54616C21.6136 7.54616 21.4656 7.62074 21.3828 7.76989C21.2999 7.91903 21.2585 8.08002 21.2585 8.25284ZM16.4929 4.47443V4.09091C16.4929 3.79735 16.5556 3.52865 16.6811 3.2848C16.8065 3.03859 16.9876 2.84209 17.2244 2.69531C17.4635 2.54853 17.7523 2.47514 18.0909 2.47514C18.4412 2.47514 18.7348 2.54853 18.9715 2.69531C19.2083 2.84209 19.3882 3.03859 19.5113 3.2848C19.6344 3.52865 19.696 3.79735 19.696 4.09091V4.47443C19.696 4.76799 19.6332 5.03669 19.5078 5.28054C19.3847 5.52438 19.2036 5.7197 18.9644 5.86648C18.7277 6.01089 18.4365 6.0831 18.0909 6.0831C17.7452 6.0831 17.4528 6.00971 17.2137 5.86293C16.977 5.71378 16.7971 5.51847 16.674 5.27699C16.5532 5.03314 16.4929 4.76562 16.4929 4.47443ZM17.5333 4.09091V4.47443C17.5333 4.64725 17.5736 4.80705 17.6541 4.95384C17.7369 5.10062 17.8825 5.17401 18.0909 5.17401C18.3087 5.17401 18.4566 5.10062 18.5348 4.95384C18.6152 4.80705 18.6555 4.64725 18.6555 4.47443V4.09091C18.6555 3.91809 18.6176 3.7571 18.5419 3.60795C18.4661 3.45881 18.3158 3.38423 18.0909 3.38423C17.8802 3.38423 17.7346 3.45999 17.6541 3.61151C17.5736 3.76302 17.5333 3.92282 17.5333 4.09091ZM16.9616 10L21.9616 2.72727H22.892L17.892 10H16.9616Z" fill="#13263D"/>
<path d="M6.5 46.6053L6 41.1053H27.5L27 46.6053H6.5Z" fill="#233E65" fill-opacity="0.5"/>
<path d="M6 41.1053L5.5 35.1053H28L27.5 41.1053H6Z" fill="#233E65" fill-opacity="0.5"/>
<path d="M5.5 35.1053L4.5 27.1053H29L28 35.1053H5.5Z" fill="#233E65" fill-opacity="0.5"/>
<path d="M4.5 27.1053L3.5 18.1053H29.5L29 27.1053H4.5Z" fill="#233E65" fill-opacity="0.5"/>
<path d="M6.41477 47.2185L3.73803 17.8026H29.8037L27.1269 47.2185C27.0684 47.8623 26.5285 48.3553 25.8821 48.3553H7.65963C7.01316 48.3553 6.47335 47.8623 6.41477 47.2185Z" stroke="#13263D" stroke-width="1.5"/>
<line x1="6.58331" y1="40.7237" x2="26.9583" y2="40.7237" stroke="#13263D" stroke-width="1.5" stroke-linecap="square"/>
<line x1="0.75" y1="-0.75" x2="31.3358" y2="-0.75" transform="matrix(0.0454511 0.998967 -0.99876 0.0497771 8.75 17.0526)" stroke="#13263D" stroke-width="1.5" stroke-linecap="round"/>
<line x1="26.25" y1="47.8553" x2="6.75" y2="47.8553" stroke="#13263D" stroke-width="1.5" stroke-linecap="round"/>
<line x1="27.125" y1="46.8553" x2="6.75" y2="46.8553" stroke="#13263D" stroke-width="1.5" stroke-linecap="round"/>
<line x1="0.75" y1="-0.75" x2="31.3358" y2="-0.75" transform="matrix(-0.0454511 0.998967 -0.99876 -0.0497771 23.3333 17.0526)" stroke="#13263D" stroke-width="1.5" stroke-linecap="round"/>
<line x1="16.7917" y1="17.8026" x2="16.7917" y2="48.3553" stroke="#13263D" stroke-width="1.5" stroke-linecap="round"/>
<path d="M5.83337 34.6053L27.8334 34.6053" stroke="#13263D" stroke-width="1.5" stroke-linecap="square"/>
<line x1="5.125" y1="26.9868" x2="28.4167" y2="26.9868" stroke="#13263D" stroke-width="1.5" stroke-linecap="round"/>
<path d="M2.00001 17.8289H31.5212C32.2166 17.8289 32.7782 17.2615 32.7712 16.5663L32.7653 15.9873C32.7583 15.3019 32.2008 14.75 31.5154 14.75H2.00001C1.30965 14.75 0.750005 15.3096 0.750008 16L0.75001 16.579C0.750012 17.2693 1.30966 17.8289 2.00001 17.8289Z" fill="#146B91" stroke="#13263D" stroke-width="1.5"/>
<path d="M8.28101 61.11V53.8373H9.81865V57.0439H9.91453L12.5317 53.8373H14.3748L11.6759 57.0937L14.4067 61.11H12.5672L10.575 58.1199L9.81865 59.0432V61.11H8.28101ZM17.2112 61.2165C16.6596 61.2165 16.1826 61.0993 15.7801 60.865C15.38 60.6282 15.0711 60.2992 14.8533 59.8778C14.6355 59.454 14.5266 58.9627 14.5266 58.404C14.5266 57.8406 14.6355 57.3482 14.8533 56.9268C15.0711 56.503 15.38 56.1739 15.7801 55.9395C16.1826 55.7028 16.6596 55.5844 17.2112 55.5844C17.7628 55.5844 18.2387 55.7028 18.6388 55.9395C19.0412 56.1739 19.3514 56.503 19.5692 56.9268C19.787 57.3482 19.8959 57.8406 19.8959 58.404C19.8959 58.9627 19.787 59.454 19.5692 59.8778C19.3514 60.2992 19.0412 60.6282 18.6388 60.865C18.2387 61.0993 17.7628 61.2165 17.2112 61.2165ZM17.2183 60.0447C17.4693 60.0447 17.6788 59.9736 17.8469 59.8316C18.015 59.6872 18.1416 59.4907 18.2269 59.2421C18.3144 58.9935 18.3582 58.7106 18.3582 58.3934C18.3582 58.0761 18.3144 57.7932 18.2269 57.5447C18.1416 57.2961 18.015 57.0996 17.8469 56.9552C17.6788 56.8108 17.4693 56.7386 17.2183 56.7386C16.965 56.7386 16.7519 56.8108 16.5791 56.9552C16.4087 57.0996 16.2796 57.2961 16.1921 57.5447C16.1068 57.7932 16.0642 58.0761 16.0642 58.3934C16.0642 58.7106 16.1068 58.9935 16.1921 59.2421C16.2796 59.4907 16.4087 59.6872 16.5791 59.8316C16.7519 59.9736 16.965 60.0447 17.2183 60.0447ZM25.4179 57.2109L24.033 57.2961C24.0093 57.1777 23.9584 57.0712 23.8803 56.9765C23.8021 56.8794 23.6992 56.8025 23.5713 56.7457C23.4458 56.6865 23.2955 56.6569 23.1203 56.6569C22.8859 56.6569 22.6883 56.7066 22.5273 56.806C22.3663 56.9031 22.2858 57.0333 22.2858 57.1966C22.2858 57.3269 22.3379 57.4369 22.4421 57.5269C22.5462 57.6169 22.725 57.6891 22.9783 57.7435L23.9655 57.9424C24.4958 58.0513 24.8912 58.2265 25.1516 58.468C25.412 58.7094 25.5422 59.0267 25.5422 59.4197C25.5422 59.7771 25.4368 60.0908 25.2261 60.3607C25.0178 60.6306 24.7314 60.8413 24.3668 60.9928C24.0046 61.142 23.5867 61.2165 23.1132 61.2165C22.3912 61.2165 21.8159 61.0662 21.3874 60.7655C20.9612 60.4625 20.7115 60.0506 20.6381 59.5297L22.126 59.4516C22.171 59.6718 22.2799 59.8399 22.4527 59.9559C22.6255 60.0695 22.8469 60.1263 23.1168 60.1263C23.3819 60.1263 23.595 60.0754 23.756 59.9736C23.9193 59.8695 24.0022 59.7357 24.0046 59.5724C24.0022 59.435 23.9442 59.3226 23.8305 59.235C23.7169 59.145 23.5417 59.0764 23.305 59.029L22.3604 58.8408C21.8277 58.7343 21.4312 58.5496 21.1707 58.2868C20.9127 58.0241 20.7837 57.6891 20.7837 57.2819C20.7837 56.9315 20.8784 56.6296 21.0678 56.3763C21.2595 56.123 21.5282 55.9277 21.8739 55.7904C22.2219 55.6531 22.6291 55.5844 23.0955 55.5844C23.7844 55.5844 24.3265 55.73 24.7219 56.0212C25.1196 56.3124 25.3516 56.709 25.4179 57.2109ZM22.4136 53.3898L23.1274 54.2563L23.8412 53.3898H25.1303V53.4395L23.6885 55.002H22.5628L21.1246 53.4395V53.3898H22.4136Z" fill="#13263D"/>
</svg>

