<svg width="35" height="64" viewBox="0 0 35 64" fill="none" xmlns="http://www.w3.org/2000/svg">
<path d="M6.89949 10V8.89205L9.48826 6.49503C9.70844 6.28196 9.89309 6.0902 10.0422 5.91974C10.1938 5.74929 10.3086 5.58239 10.3867 5.41903C10.4648 5.25331 10.5039 5.07457 10.5039 4.88281C10.5039 4.66974 10.4554 4.48627 10.3583 4.33239C10.2612 4.17614 10.1287 4.05658 9.96057 3.97372C9.79248 3.88849 9.6019 3.84588 9.38883 3.84588C9.16629 3.84588 8.97217 3.89086 8.80645 3.98082C8.64073 4.07079 8.51289 4.19981 8.42292 4.3679C8.33296 4.53598 8.28798 4.73603 8.28798 4.96804H6.82846C6.82846 4.49219 6.93618 4.07907 7.15162 3.72869C7.36705 3.37831 7.6689 3.10724 8.05716 2.91548C8.44541 2.72372 8.89286 2.62784 9.39949 2.62784C9.92032 2.62784 10.3737 2.72017 10.7596 2.90483C11.1478 3.08712 11.4497 3.34044 11.6651 3.66477C11.8805 3.98911 11.9883 4.3608 11.9883 4.77983C11.9883 5.05445 11.9338 5.32552 11.8249 5.59304C11.7184 5.86056 11.5278 6.15767 11.2532 6.48438C10.9786 6.80871 10.5915 7.19815 10.092 7.6527L9.03017 8.69318V8.7429H12.0841V10H6.89949ZM15.8546 10.0994C15.3527 10.0994 14.9052 10.0071 14.5122 9.82244C14.1216 9.63778 13.8115 9.38329 13.5818 9.05895C13.3522 8.73461 13.2326 8.36293 13.2232 7.94389H14.7146C14.7312 8.22562 14.8496 8.45407 15.0698 8.62926C15.2899 8.80445 15.5515 8.89205 15.8546 8.89205C16.096 8.89205 16.3091 8.83878 16.4938 8.73224C16.6808 8.62334 16.8264 8.47301 16.9306 8.28125C17.0371 8.08712 17.0904 7.86458 17.0904 7.61364C17.0904 7.35795 17.0359 7.13305 16.927 6.93892C16.8205 6.74479 16.6725 6.59328 16.4831 6.48438C16.2937 6.37547 16.0771 6.31984 15.8333 6.31747C15.6202 6.31747 15.413 6.36127 15.2118 6.44886C15.0129 6.53646 14.8579 6.65601 14.7466 6.80753L13.3794 6.5625L13.7239 2.72727H18.1699V3.98438H14.9916L14.8034 5.80611H14.846C14.9739 5.62618 15.1668 5.47704 15.4249 5.35866C15.6829 5.24029 15.9718 5.18111 16.2914 5.18111C16.7293 5.18111 17.12 5.28409 17.4632 5.49006C17.8065 5.69602 18.0776 5.97893 18.2764 6.33878C18.4753 6.69626 18.5736 7.10819 18.5712 7.57457C18.5736 8.06463 18.4599 8.50024 18.2303 8.88139C18.003 9.26018 17.6846 9.55848 17.275 9.77628C16.8678 9.99171 16.3943 10.0994 15.8546 10.0994ZM23.6245 8.63636V8.25284C23.6245 7.96165 23.686 7.69413 23.8091 7.45028C23.9346 7.20407 24.1157 7.00758 24.3524 6.8608C24.5915 6.71165 24.8827 6.63707 25.226 6.63707C25.574 6.63707 25.8664 6.71046 26.1031 6.85724C26.3423 7.00402 26.5222 7.20052 26.6429 7.44673C26.766 7.69058 26.8276 7.95928 26.8276 8.25284V8.63636C26.8276 8.92756 26.766 9.19626 26.6429 9.44247C26.5198 9.68632 26.3387 9.88163 26.0996 10.0284C25.8605 10.1776 25.5693 10.2521 25.226 10.2521C24.878 10.2521 24.5856 10.1776 24.3489 10.0284C24.1121 9.88163 23.9322 9.68632 23.8091 9.44247C23.686 9.19626 23.6245 8.92756 23.6245 8.63636ZM24.6578 8.25284V8.63636C24.6578 8.80445 24.6981 8.96307 24.7786 9.11222C24.8614 9.26136 25.0106 9.33594 25.226 9.33594C25.4414 9.33594 25.5882 9.26255 25.6664 9.11577C25.7468 8.96899 25.7871 8.80919 25.7871 8.63636V8.25284C25.7871 8.08002 25.7492 7.91903 25.6735 7.76989C25.5977 7.62074 25.4486 7.54616 25.226 7.54616C25.0129 7.54616 24.865 7.62074 24.7821 7.76989C24.6993 7.91903 24.6578 8.08002 24.6578 8.25284ZM19.8922 4.47443V4.09091C19.8922 3.79735 19.9549 3.52865 20.0804 3.2848C20.2059 3.03859 20.387 2.84209 20.6237 2.69531C20.8629 2.54853 21.1517 2.47514 21.4902 2.47514C21.8406 2.47514 22.1342 2.54853 22.3709 2.69531C22.6076 2.84209 22.7876 3.03859 22.9107 3.2848C23.0338 3.52865 23.0953 3.79735 23.0953 4.09091V4.47443C23.0953 4.76799 23.0326 5.03669 22.9071 5.28054C22.784 5.52438 22.6029 5.7197 22.3638 5.86648C22.1271 6.01089 21.8359 6.0831 21.4902 6.0831C21.1446 6.0831 20.8522 6.00971 20.6131 5.86293C20.3763 5.71378 20.1964 5.51847 20.0733 5.27699C19.9526 5.03314 19.8922 4.76562 19.8922 4.47443ZM20.9327 4.09091V4.47443C20.9327 4.64725 20.9729 4.80705 21.0534 4.95384C21.1363 5.10062 21.2819 5.17401 21.4902 5.17401C21.708 5.17401 21.856 5.10062 21.9341 4.95384C22.0146 4.80705 22.0548 4.64725 22.0548 4.47443V4.09091C22.0548 3.91809 22.017 3.7571 21.9412 3.60795C21.8655 3.45881 21.7151 3.38423 21.4902 3.38423C21.2795 3.38423 21.1339 3.45999 21.0534 3.61151C20.9729 3.76302 20.9327 3.92282 20.9327 4.09091ZM20.361 10L25.361 2.72727H26.2914L21.2914 10H20.361Z" fill="#52B0A5"/>
<path d="M7.03968 46.6053L6.5397 41.1053H28.0386L27.5387 46.6053H7.03968Z" fill="#52B0A5"/>
<path d="M6.53967 41.1053L6.03969 35.1053H28.5386L28.0386 41.1053H6.53967Z" fill="#233E65" fill-opacity="0.5"/>
<path d="M6.03968 35.1053L5.03973 27.1053H29.5385L28.5386 35.1053H6.03968Z" fill="#233E65" fill-opacity="0.5"/>
<path d="M5.03976 27.1053L4.03981 18.1053H30.0385L29.5385 27.1053H5.03976Z" fill="#233E65" fill-opacity="0.5"/>
<path d="M6.95443 47.2185L4.27782 17.8026H30.3421L27.6655 47.2185C27.6069 47.8623 27.0671 48.3553 26.4206 48.3553H8.19928C7.55282 48.3553 7.01301 47.8623 6.95443 47.2185Z" stroke="#13263D" stroke-width="1.5"/>
<line x1="7.12299" y1="40.7237" x2="27.4969" y2="40.7237" stroke="#13263D" stroke-width="1.5" stroke-linecap="square"/>
<line x1="0.75" y1="-0.75" x2="31.3358" y2="-0.75" transform="matrix(0.0454488 0.998967 -0.99876 0.0497796 9.28955 17.0526)" stroke="#13263D" stroke-width="1.5" stroke-linecap="round"/>
<line x1="26.7886" y1="47.8553" x2="7.28968" y2="47.8553" stroke="#13263D" stroke-width="1.5" stroke-linecap="round"/>
<line x1="27.6636" y1="46.8553" x2="7.28972" y2="46.8553" stroke="#13263D" stroke-width="1.5" stroke-linecap="round"/>
<line x1="0.75" y1="-0.75" x2="31.3358" y2="-0.75" transform="matrix(-0.0454488 0.998967 -0.99876 -0.0497796 23.8721 17.0526)" stroke="#13263D" stroke-width="1.5" stroke-linecap="round"/>
<line x1="17.3309" y1="17.8026" x2="17.3309" y2="48.3553" stroke="#13263D" stroke-width="1.5" stroke-linecap="round"/>
<path d="M6.37305 34.6053L28.372 34.6053" stroke="#13263D" stroke-width="1.5" stroke-linecap="square"/>
<line x1="5.66473" y1="26.9868" x2="28.9552" y2="26.9868" stroke="#13263D" stroke-width="1.5" stroke-linecap="round"/>
<path d="M2.53999 17.8289H32.0596C32.7549 17.8289 33.3166 17.2615 33.3095 16.5663L33.3036 15.9873C33.2966 15.3019 32.7391 14.75 32.0537 14.75H2.53998C1.84963 14.75 1.28998 15.3096 1.28999 16L1.28999 16.579C1.28999 17.2693 1.84963 17.8289 2.53999 17.8289Z" fill="#146B91" stroke="#13263D" stroke-width="1.5"/>
<path d="M8.82099 61.11V53.8373H10.3586V57.0439H10.4545L13.0717 53.8373H14.9147L12.2159 57.0937L14.9467 61.11H13.1072L11.115 58.1199L10.3586 59.0432V61.11H8.82099ZM17.7512 61.2165C17.1996 61.2165 16.7226 61.0993 16.3201 60.865C15.92 60.6282 15.6111 60.2992 15.3933 59.8778C15.1754 59.454 15.0665 58.9627 15.0665 58.404C15.0665 57.8406 15.1754 57.3482 15.3933 56.9268C15.6111 56.503 15.92 56.1739 16.3201 55.9395C16.7226 55.7028 17.1996 55.5844 17.7512 55.5844C18.3028 55.5844 18.7787 55.7028 19.1788 55.9395C19.5812 56.1739 19.8914 56.503 20.1092 56.9268C20.327 57.3482 20.4359 57.8406 20.4359 58.404C20.4359 58.9627 20.327 59.454 20.1092 59.8778C19.8914 60.2992 19.5812 60.6282 19.1788 60.865C18.7787 61.0993 18.3028 61.2165 17.7512 61.2165ZM17.7583 60.0447C18.0093 60.0447 18.2188 59.9736 18.3869 59.8316C18.5549 59.6872 18.6816 59.4907 18.7668 59.2421C18.8544 58.9935 18.8982 58.7106 18.8982 58.3934C18.8982 58.0761 18.8544 57.7932 18.7668 57.5447C18.6816 57.2961 18.5549 57.0996 18.3869 56.9552C18.2188 56.8108 18.0093 56.7386 17.7583 56.7386C17.505 56.7386 17.2919 56.8108 17.1191 56.9552C16.9487 57.0996 16.8196 57.2961 16.732 57.5447C16.6468 57.7932 16.6042 58.0761 16.6042 58.3934C16.6042 58.7106 16.6468 58.9935 16.732 59.2421C16.8196 59.4907 16.9487 59.6872 17.1191 59.8316C17.2919 59.9736 17.505 60.0447 17.7583 60.0447ZM25.9579 57.2109L24.5729 57.2961C24.5493 57.1777 24.4984 57.0712 24.4202 56.9765C24.3421 56.8794 24.2391 56.8025 24.1113 56.7457C23.9858 56.6865 23.8355 56.6569 23.6603 56.6569C23.4259 56.6569 23.2282 56.7066 23.0673 56.806C22.9063 56.9031 22.8258 57.0333 22.8258 57.1966C22.8258 57.3269 22.8779 57.4369 22.982 57.5269C23.0862 57.6169 23.2649 57.6891 23.5183 57.7435L24.5055 57.9424C25.0358 58.0513 25.4311 58.2265 25.6915 58.468C25.952 58.7094 26.0822 59.0267 26.0822 59.4197C26.0822 59.7771 25.9768 60.0908 25.7661 60.3607C25.5578 60.6306 25.2713 60.8413 24.9067 60.9928C24.5445 61.142 24.1267 61.2165 23.6532 61.2165C22.9311 61.2165 22.3558 61.0662 21.9273 60.7655C21.5012 60.4625 21.2514 60.0506 21.1781 59.5297L22.666 59.4516C22.711 59.6718 22.8199 59.8399 22.9927 59.9559C23.1655 60.0695 23.3869 60.1263 23.6567 60.1263C23.9219 60.1263 24.135 60.0754 24.296 59.9736C24.4593 59.8695 24.5422 59.7357 24.5445 59.5724C24.5422 59.435 24.4842 59.3226 24.3705 59.235C24.2569 59.145 24.0817 59.0764 23.845 59.029L22.9004 58.8408C22.3677 58.7343 21.9711 58.5496 21.7107 58.2868C21.4527 58.0241 21.3237 57.6891 21.3237 57.2819C21.3237 56.9315 21.4183 56.6296 21.6077 56.3763C21.7995 56.123 22.0682 55.9277 22.4138 55.7904C22.7619 55.6531 23.1691 55.5844 23.6354 55.5844C24.3244 55.5844 24.8665 55.73 25.2619 56.0212C25.6596 56.3124 25.8916 56.709 25.9579 57.2109ZM22.9536 53.3898L23.6674 54.2563L24.3812 53.3898H25.6702V53.4395L24.2285 55.002H23.1028L21.6646 53.4395V53.3898H22.9536Z" fill="#13263D"/>
</svg>

