<svg width="34" height="64" viewBox="0 0 34 64" fill="none" xmlns="http://www.w3.org/2000/svg">
<path d="M8.65087 2.62784C9.02493 2.62784 9.38477 2.69058 9.73042 2.81605C10.0784 2.94152 10.3886 3.14157 10.6608 3.41619C10.9354 3.69081 11.1521 4.0554 11.3107 4.50994C11.4717 4.96212 11.5533 5.51728 11.5557 6.17543C11.5557 6.79332 11.4859 7.34493 11.3462 7.83026C11.2089 8.31321 11.0112 8.72396 10.7531 9.0625C10.4951 9.40104 10.1838 9.65909 9.8192 9.83665C9.45461 10.0118 9.04742 10.0994 8.59761 10.0994C8.11228 10.0994 7.68378 10.0059 7.3121 9.81889C6.94041 9.6295 6.64093 9.37263 6.41366 9.0483C6.18875 8.72159 6.05263 8.35464 6.00528 7.94744H7.52161C7.5808 8.21259 7.70509 8.41856 7.89448 8.56534C8.08388 8.70975 8.31825 8.78196 8.59761 8.78196C9.07109 8.78196 9.43094 8.57599 9.67715 8.16406C9.92336 7.74976 10.0477 7.18277 10.05 6.46307H10.0003C9.8914 6.67614 9.74462 6.85961 9.55996 7.01349C9.37531 7.16501 9.16342 7.2822 8.92431 7.36506C8.68757 7.44792 8.43544 7.48935 8.16792 7.48935C7.73942 7.48935 7.35708 7.38873 7.0209 7.1875C6.68473 6.98627 6.41958 6.70928 6.22545 6.35653C6.03132 6.00379 5.93425 5.60133 5.93425 5.14915C5.93189 4.66146 6.04434 4.22704 6.27161 3.84588C6.49888 3.46473 6.81612 3.16643 7.22332 2.95099C7.63288 2.73319 8.10873 2.62547 8.65087 2.62784ZM8.66153 3.83523C8.42242 3.83523 8.20935 3.89205 8.02232 4.00568C7.83766 4.11932 7.69088 4.27202 7.58198 4.46378C7.47545 4.65554 7.42336 4.86979 7.42573 5.10653C7.42573 5.34564 7.47781 5.56108 7.58198 5.75284C7.68852 5.94223 7.83293 6.09375 8.01522 6.20739C8.19988 6.31866 8.41058 6.37429 8.64732 6.37429C8.82488 6.37429 8.98942 6.34115 9.14093 6.27486C9.29245 6.20857 9.42384 6.11742 9.53511 6.00142C9.64874 5.88305 9.73752 5.74692 9.80144 5.59304C9.86536 5.43916 9.89732 5.2758 9.89732 5.10298C9.89495 4.87334 9.8405 4.66264 9.73397 4.47088C9.62744 4.27912 9.48066 4.12524 9.29363 4.00923C9.1066 3.89323 8.8959 3.83523 8.66153 3.83523ZM15.4726 10.1598C14.8618 10.1574 14.3362 10.0071 13.8959 9.70881C13.4579 9.41051 13.1206 8.97846 12.8838 8.41264C12.6495 7.84683 12.5334 7.16619 12.5358 6.37074C12.5358 5.57765 12.653 4.90175 12.8874 4.34304C13.1241 3.78433 13.4615 3.35937 13.8995 3.06818C14.3398 2.77462 14.8642 2.62784 15.4726 2.62784C16.081 2.62784 16.6042 2.77462 17.0422 3.06818C17.4825 3.36174 17.8211 3.78788 18.0578 4.34659C18.2946 4.90294 18.4118 5.57765 18.4094 6.37074C18.4094 7.16856 18.291 7.85038 18.0543 8.41619C17.8199 8.98201 17.4837 9.41406 17.0458 9.71236C16.6078 10.0107 16.0834 10.1598 15.4726 10.1598ZM15.4726 8.88494C15.8893 8.88494 16.2219 8.67543 16.4705 8.25639C16.7191 7.83736 16.8422 7.20881 16.8398 6.37074C16.8398 5.81913 16.783 5.35985 16.6693 4.9929C16.5581 4.62595 16.3995 4.35014 16.1935 4.16548C15.9899 3.98082 15.7496 3.88849 15.4726 3.88849C15.0583 3.88849 14.7269 4.09564 14.4783 4.50994C14.2297 4.92424 14.1042 5.54451 14.1019 6.37074C14.1019 6.92945 14.1575 7.39583 14.2688 7.76989C14.3824 8.14157 14.5422 8.42093 14.7482 8.60795C14.9541 8.79261 15.1956 8.88494 15.4726 8.88494ZM23.4866 8.63636V8.25284C23.4866 7.96165 23.5482 7.69413 23.6713 7.45028C23.7968 7.20407 23.9779 7.00758 24.2146 6.8608C24.4537 6.71165 24.7449 6.63707 25.0882 6.63707C25.4362 6.63707 25.7286 6.71046 25.9653 6.85724C26.2044 7.00402 26.3844 7.20052 26.5051 7.44673C26.6282 7.69058 26.6898 7.95928 26.6898 8.25284V8.63636C26.6898 8.92756 26.6282 9.19626 26.5051 9.44247C26.382 9.68632 26.2009 9.88163 25.9618 10.0284C25.7227 10.1776 25.4315 10.2521 25.0882 10.2521C24.7402 10.2521 24.4478 10.1776 24.2111 10.0284C23.9743 9.88163 23.7944 9.68632 23.6713 9.44247C23.5482 9.19626 23.4866 8.92756 23.4866 8.63636ZM24.52 8.25284V8.63636C24.52 8.80445 24.5603 8.96307 24.6408 9.11222C24.7236 9.26136 24.8728 9.33594 25.0882 9.33594C25.3036 9.33594 25.4504 9.26255 25.5285 9.11577C25.609 8.96899 25.6493 8.80919 25.6493 8.63636V8.25284C25.6493 8.08002 25.6114 7.91903 25.5356 7.76989C25.4599 7.62074 25.3107 7.54616 25.0882 7.54616C24.8751 7.54616 24.7272 7.62074 24.6443 7.76989C24.5614 7.91903 24.52 8.08002 24.52 8.25284ZM19.7544 4.47443V4.09091C19.7544 3.79735 19.8171 3.52865 19.9426 3.2848C20.0681 3.03859 20.2492 2.84209 20.4859 2.69531C20.725 2.54853 21.0139 2.47514 21.3524 2.47514C21.7028 2.47514 21.9963 2.54853 22.2331 2.69531C22.4698 2.84209 22.6497 3.03859 22.7729 3.2848C22.896 3.52865 22.9575 3.79735 22.9575 4.09091V4.47443C22.9575 4.76799 22.8948 5.03669 22.7693 5.28054C22.6462 5.52438 22.4651 5.7197 22.226 5.86648C21.9892 6.01089 21.698 6.0831 21.3524 6.0831C21.0068 6.0831 20.7144 6.00971 20.4753 5.86293C20.2385 5.71378 20.0586 5.51847 19.9355 5.27699C19.8148 5.03314 19.7544 4.76562 19.7544 4.47443ZM20.7949 4.09091V4.47443C20.7949 4.64725 20.8351 4.80705 20.9156 4.95384C20.9985 5.10062 21.1441 5.17401 21.3524 5.17401C21.5702 5.17401 21.7182 5.10062 21.7963 4.95384C21.8768 4.80705 21.917 4.64725 21.917 4.47443V4.09091C21.917 3.91809 21.8792 3.7571 21.8034 3.60795C21.7276 3.45881 21.5773 3.38423 21.3524 3.38423C21.1417 3.38423 20.9961 3.45999 20.9156 3.61151C20.8351 3.76302 20.7949 3.92282 20.7949 4.09091ZM20.2231 10L25.2231 2.72727H26.1535L21.1535 10H20.2231Z" fill="#DE483E"/>
<path d="M6.66 46.6053L6.16 41.1053H27.66L27.16 46.6053H6.66Z" fill="#DE483E"/>
<path d="M6.16 41.1053L5.66 35.1053H28.16L27.66 41.1053H6.16Z" fill="#DE483E"/>
<path d="M5.66 35.1053L4.66 27.1053H29.16L28.16 35.1053H5.66Z" fill="#DE483E"/>
<path d="M4.66 27.1053L3.66 18.1053H29.66L29.16 27.1053H4.66Z" fill="#DE483E"/>
<path d="M6.57474 47.2185L3.89801 17.8026H29.9636L27.2869 47.2185C27.2283 47.8623 26.6885 48.3553 26.0421 48.3553H7.8196C7.17313 48.3553 6.63332 47.8623 6.57474 47.2185Z" stroke="#13263D" stroke-width="1.5"/>
<line x1="6.74335" y1="40.7237" x2="27.1183" y2="40.7237" stroke="#13263D" stroke-width="1.5" stroke-linecap="square"/>
<line x1="0.75" y1="-0.75" x2="31.3358" y2="-0.75" transform="matrix(0.0454511 0.998967 -0.99876 0.0497771 8.91 17.0526)" stroke="#13263D" stroke-width="1.5" stroke-linecap="round"/>
<line x1="26.41" y1="47.8553" x2="6.91" y2="47.8553" stroke="#13263D" stroke-width="1.5" stroke-linecap="round"/>
<line x1="27.285" y1="46.8553" x2="6.91003" y2="46.8553" stroke="#13263D" stroke-width="1.5" stroke-linecap="round"/>
<line x1="0.75" y1="-0.75" x2="31.3358" y2="-0.75" transform="matrix(-0.0454511 0.998967 -0.99876 -0.0497771 23.4933 17.0526)" stroke="#13263D" stroke-width="1.5" stroke-linecap="round"/>
<line x1="16.9517" y1="17.8026" x2="16.9517" y2="48.3553" stroke="#13263D" stroke-width="1.5" stroke-linecap="round"/>
<path d="M5.99335 34.6053L27.9933 34.6053" stroke="#13263D" stroke-width="1.5" stroke-linecap="square"/>
<line x1="5.285" y1="26.9868" x2="28.5767" y2="26.9868" stroke="#13263D" stroke-width="1.5" stroke-linecap="round"/>
<path d="M0.910013 16.579C0.910016 17.2693 1.46966 17.8289 2.16001 17.8289H31.6812C32.3766 17.8289 32.9382 17.2615 32.9312 16.5663L32.9253 15.9873C32.9183 15.3019 32.3608 14.75 31.6754 14.75H2.16001C1.46965 14.75 0.910009 15.3096 0.910011 16L0.910013 16.579Z" fill="#146B91" stroke="#13263D" stroke-width="1.5"/>
<path d="M8.44101 61.11V53.8373H9.97865V57.0439H10.0745L12.6917 53.8373H14.5348L11.8359 57.0937L14.5667 61.11H12.7272L10.735 58.1199L9.97865 59.0432V61.11H8.44101ZM17.3712 61.2165C16.8196 61.2165 16.3426 61.0993 15.9401 60.865C15.54 60.6282 15.2311 60.2992 15.0133 59.8778C14.7955 59.454 14.6866 58.9627 14.6866 58.404C14.6866 57.8406 14.7955 57.3482 15.0133 56.9268C15.2311 56.503 15.54 56.1739 15.9401 55.9395C16.3426 55.7028 16.8196 55.5844 17.3712 55.5844C17.9228 55.5844 18.3987 55.7028 18.7988 55.9395C19.2013 56.1739 19.5114 56.503 19.7292 56.9268C19.947 57.3482 20.0559 57.8406 20.0559 58.404C20.0559 58.9627 19.947 59.454 19.7292 59.8778C19.5114 60.2992 19.2013 60.6282 18.7988 60.865C18.3987 61.0993 17.9228 61.2165 17.3712 61.2165ZM17.3783 60.0447C17.6293 60.0447 17.8388 59.9736 18.0069 59.8316C18.175 59.6872 18.3016 59.4907 18.3869 59.2421C18.4745 58.9935 18.5183 58.7106 18.5183 58.3934C18.5183 58.0761 18.4745 57.7932 18.3869 57.5447C18.3016 57.2961 18.175 57.0996 18.0069 56.9552C17.8388 56.8108 17.6293 56.7386 17.3783 56.7386C17.125 56.7386 16.912 56.8108 16.7391 56.9552C16.5687 57.0996 16.4397 57.2961 16.3521 57.5447C16.2668 57.7932 16.2242 58.0761 16.2242 58.3934C16.2242 58.7106 16.2668 58.9935 16.3521 59.2421C16.4397 59.4907 16.5687 59.6872 16.7391 59.8316C16.912 59.9736 17.125 60.0447 17.3783 60.0447ZM25.5779 57.2109L24.193 57.2961C24.1693 57.1777 24.1184 57.0712 24.0403 56.9765C23.9621 56.8794 23.8592 56.8025 23.7313 56.7457C23.6058 56.6865 23.4555 56.6569 23.2803 56.6569C23.0459 56.6569 22.8483 56.7066 22.6873 56.806C22.5263 56.9031 22.4458 57.0333 22.4458 57.1966C22.4458 57.3269 22.4979 57.4369 22.6021 57.5269C22.7062 57.6169 22.885 57.6891 23.1383 57.7435L24.1255 57.9424C24.6558 58.0513 25.0512 58.2265 25.3116 58.468C25.572 58.7094 25.7022 59.0267 25.7022 59.4197C25.7022 59.7771 25.5968 60.0908 25.3861 60.3607C25.1778 60.6306 24.8914 60.8413 24.5268 60.9928C24.1646 61.142 23.7467 61.2165 23.2732 61.2165C22.5512 61.2165 21.9759 61.0662 21.5474 60.7655C21.1212 60.4625 20.8715 60.0506 20.7981 59.5297L22.286 59.4516C22.331 59.6718 22.4399 59.8399 22.6127 59.9559C22.7855 60.0695 23.0069 60.1263 23.2768 60.1263C23.5419 60.1263 23.755 60.0754 23.916 59.9736C24.0793 59.8695 24.1622 59.7357 24.1646 59.5724C24.1622 59.435 24.1042 59.3226 23.9906 59.235C23.8769 59.145 23.7017 59.0764 23.465 59.029L22.5204 58.8408C21.9877 58.7343 21.5912 58.5496 21.3307 58.2868C21.0727 58.0241 20.9437 57.6891 20.9437 57.2819C20.9437 56.9315 21.0384 56.6296 21.2278 56.3763C21.4195 56.123 21.6882 55.9277 22.0339 55.7904C22.3819 55.6531 22.7891 55.5844 23.2555 55.5844C23.9444 55.5844 24.4865 55.73 24.8819 56.0212C25.2796 56.3124 25.5116 56.709 25.5779 57.2109ZM22.5736 53.3898L23.2874 54.2563L24.0012 53.3898H25.2903V53.4395L23.8485 55.002H22.7228L21.2846 53.4395V53.3898H22.5736Z" fill="#13263D"/>
</svg>

