<svg width="35" height="68" viewBox="0 0 35 68" fill="none" xmlns="http://www.w3.org/2000/svg">
<path d="M7.22355 0.727273V8H5.68591V2.18679H5.6433L3.97781 3.23082V1.86719L5.77824 0.727273H7.22355ZM11.8036 8.1598C11.1928 8.15743 10.6673 8.0071 10.2269 7.70881C9.78895 7.41051 9.45159 6.97846 9.21485 6.41264C8.98048 5.84683 8.86447 5.16619 8.86684 4.37074C8.86684 3.57765 8.98403 2.90175 9.2184 2.34304C9.45515 1.78433 9.7925 1.35937 10.2305 1.06818C10.6708 0.774621 11.1952 0.627841 11.8036 0.627841C12.4121 0.627841 12.9353 0.774621 13.3732 1.06818C13.8136 1.36174 14.1521 1.78788 14.3889 2.34659C14.6256 2.90294 14.7428 3.57765 14.7404 4.37074C14.7404 5.16856 14.622 5.85038 14.3853 6.41619C14.1509 6.98201 13.8148 7.41406 13.3768 7.71236C12.9388 8.01065 12.4144 8.1598 11.8036 8.1598ZM11.8036 6.88494C12.2203 6.88494 12.5529 6.67543 12.8015 6.25639C13.0501 5.83736 13.1732 5.20881 13.1708 4.37074C13.1708 3.81913 13.114 3.35985 13.0004 2.9929C12.8891 2.62595 12.7305 2.35014 12.5245 2.16548C12.3209 1.98082 12.0806 1.88849 11.8036 1.88849C11.3893 1.88849 11.0579 2.09564 10.8093 2.50994C10.5607 2.92424 10.4353 3.54451 10.4329 4.37074C10.4329 4.92945 10.4885 5.39583 10.5998 5.76989C10.7134 6.14157 10.8732 6.42093 11.0792 6.60795C11.2852 6.79261 11.5266 6.88494 11.8036 6.88494ZM18.6884 8.1598C18.0776 8.15743 17.552 8.0071 17.1117 7.70881C16.6737 7.41051 16.3364 6.97846 16.0996 6.41264C15.8652 5.84683 15.7492 5.16619 15.7516 4.37074C15.7516 3.57765 15.8688 2.90175 16.1032 2.34304C16.3399 1.78433 16.6773 1.35937 17.1152 1.06818C17.5556 0.774621 18.08 0.627841 18.6884 0.627841C19.2968 0.627841 19.82 0.774621 20.258 1.06818C20.6983 1.36174 21.0369 1.78788 21.2736 2.34659C21.5104 2.90294 21.6276 3.57765 21.6252 4.37074C21.6252 5.16856 21.5068 5.85038 21.2701 6.41619C21.0357 6.98201 20.6995 7.41406 20.2615 7.71236C19.8236 8.01065 19.2992 8.1598 18.6884 8.1598ZM18.6884 6.88494C19.1051 6.88494 19.4377 6.67543 19.6863 6.25639C19.9348 5.83736 20.058 5.20881 20.0556 4.37074C20.0556 3.81913 19.9988 3.35985 19.8851 2.9929C19.7739 2.62595 19.6152 2.35014 19.4093 2.16548C19.2057 1.98082 18.9654 1.88849 18.6884 1.88849C18.2741 1.88849 17.9427 2.09564 17.6941 2.50994C17.4455 2.92424 17.32 3.54451 17.3177 4.37074C17.3177 4.92945 17.3733 5.39583 17.4846 5.76989C17.5982 6.14157 17.758 6.42093 17.964 6.60795C18.1699 6.79261 18.4114 6.88494 18.6884 6.88494ZM26.7024 6.63636V6.25284C26.7024 5.96165 26.764 5.69413 26.8871 5.45028C27.0126 5.20407 27.1937 5.00758 27.4304 4.8608C27.6695 4.71165 27.9607 4.63707 28.304 4.63707C28.652 4.63707 28.9444 4.71046 29.1811 4.85724C29.4202 5.00402 29.6002 5.20052 29.7209 5.44673C29.844 5.69058 29.9055 5.95928 29.9055 6.25284V6.63636C29.9055 6.92756 29.844 7.19626 29.7209 7.44247C29.5978 7.68632 29.4167 7.88163 29.1776 8.02841C28.9385 8.17756 28.6473 8.25213 28.304 8.25213C27.956 8.25213 27.6636 8.17756 27.4269 8.02841C27.1901 7.88163 27.0102 7.68632 26.8871 7.44247C26.764 7.19626 26.7024 6.92756 26.7024 6.63636ZM27.7358 6.25284V6.63636C27.7358 6.80445 27.776 6.96307 27.8565 7.11222C27.9394 7.26136 28.0886 7.33594 28.304 7.33594C28.5194 7.33594 28.6662 7.26255 28.7443 7.11577C28.8248 6.96899 28.8651 6.80919 28.8651 6.63636V6.25284C28.8651 6.08002 28.8272 5.91903 28.7514 5.76989C28.6757 5.62074 28.5265 5.54616 28.304 5.54616C28.0909 5.54616 27.943 5.62074 27.8601 5.76989C27.7772 5.91903 27.7358 6.08002 27.7358 6.25284ZM22.9702 2.47443V2.09091C22.9702 1.79735 23.0329 1.52865 23.1584 1.2848C23.2839 1.03859 23.465 0.842093 23.7017 0.695312C23.9408 0.548532 24.2296 0.475142 24.5682 0.475142C24.9186 0.475142 25.2121 0.548532 25.4489 0.695312C25.6856 0.842093 25.8655 1.03859 25.9886 1.2848C26.1118 1.52865 26.1733 1.79735 26.1733 2.09091V2.47443C26.1733 2.76799 26.1106 3.03669 25.9851 3.28054C25.862 3.52438 25.6809 3.7197 25.4418 3.86648C25.205 4.01089 24.9138 4.0831 24.5682 4.0831C24.2225 4.0831 23.9302 4.00971 23.6911 3.86293C23.4543 3.71378 23.2744 3.51847 23.1513 3.27699C23.0305 3.03314 22.9702 2.76562 22.9702 2.47443ZM24.0107 2.09091V2.47443C24.0107 2.64725 24.0509 2.80705 24.1314 2.95384C24.2143 3.10062 24.3599 3.17401 24.5682 3.17401C24.786 3.17401 24.934 3.10062 25.0121 2.95384C25.0926 2.80705 25.1328 2.64725 25.1328 2.47443V2.09091C25.1328 1.91809 25.0949 1.7571 25.0192 1.60795C24.9434 1.45881 24.7931 1.38423 24.5682 1.38423C24.3575 1.38423 24.2119 1.45999 24.1314 1.61151C24.0509 1.76302 24.0107 1.92282 24.0107 2.09091ZM23.4389 8L28.4389 0.727273H29.3693L24.3693 8H23.4389Z" fill="#C62860"/>
<path d="M14.7492 22.8373C13.7856 21.8321 12.0626 21.9318 11.5941 21.7896C11.5798 21.7501 11.5619 21.7115 11.5366 21.6749L11.1477 21.112L12.2444 20.3806C12.3815 20.2892 12.4072 20.0913 12.3018 19.9387C12.1964 19.7861 11.9996 19.7364 11.8625 19.8279L10.7658 20.5592L10.1576 19.6789L11.4751 18.8004C11.6121 18.709 11.6379 18.511 11.5324 18.3584C11.427 18.2058 11.2303 18.1562 11.0932 18.2476L9.77573 19.1261L9.16739 18.2456L10.7055 17.2199C10.8426 17.1285 10.8683 16.9305 10.7629 16.7779C10.6575 16.6253 10.4607 16.5757 10.3236 16.6671L8.78549 17.6928L8.17732 16.8125L9.49476 15.934C9.63183 15.8426 9.65754 15.6446 9.55211 15.492C9.4467 15.3394 9.24995 15.2898 9.11285 15.3812L7.79542 16.2597L7.23947 15.455C8.74131 14.3722 9.31705 13.3768 9.31705 13.3768C7.5488 11.0962 4.31358 10.7464 4.31358 10.7464L4.08367 11.6017L3.18972 11.4959C3.18972 11.4959 2.32634 14.5788 3.83058 17.0354C3.83058 17.0354 4.98482 16.8773 6.56355 15.9058L7.1195 16.7105L5.80209 17.589C5.66499 17.6804 5.6393 17.8784 5.74473 18.031C5.85016 18.1836 6.0469 18.2332 6.18399 18.1418L7.5014 17.2633L8.10957 18.1436L6.57144 19.1693C6.43435 19.2607 6.40866 19.4586 6.51409 19.6112C6.6195 19.7638 6.81626 19.8135 6.95335 19.7221L8.49148 18.6964L9.09981 19.5769L7.7824 20.4554C7.64531 20.5468 7.61962 20.7448 7.72505 20.8974C7.83048 21.05 8.02722 21.0996 8.16431 21.0082L9.48172 20.1297L10.0899 21.01L8.99321 21.7413C8.85611 21.8327 8.83043 22.0307 8.93585 22.1833C9.04128 22.3359 9.23802 22.3855 9.37512 22.2941L10.4718 21.5628L10.8607 22.1256C10.886 22.1623 10.9163 22.193 10.9484 22.2207C10.9095 22.7012 10.1793 24.2374 10.7742 25.4881L12.63 23.972L14.7492 22.8373ZM5.81483 13.4535C5.65073 13.216 5.69064 12.9083 5.90403 12.766C6.11742 12.6237 6.42322 12.7008 6.58734 12.9384C6.75144 13.1759 6.71151 13.4836 6.49812 13.6259C6.28473 13.7682 5.97893 13.6911 5.81483 13.4535Z" fill="#13263D"/>
<path d="M30.2214 17.5544C30.2534 17.4037 30.3073 16.7283 30.3287 16.4488C30.3346 16.3719 30.3035 16.2972 30.2448 16.2462L29.8806 15.9294C29.824 15.8802 29.7479 15.8575 29.6744 15.8753C29.057 16.0247 27.4859 16.7652 25.337 20.3693C24.9053 21.0936 23.6993 22.56 22.6494 23.01C22.5656 23.0459 22.4696 23.0264 22.4013 22.9669L21.2648 21.9786C21.1059 21.8403 21.1808 21.5776 21.387 21.5266C22.5618 21.2364 24.1603 20.5177 25.1988 18.9854C26.5674 16.9663 27.5638 15.7343 28.4476 15.1423C28.5939 15.0443 28.6196 14.8327 28.4872 14.7176L26.0514 12.5992C25.9927 12.5481 25.9135 12.5268 25.8365 12.5419C25.5568 12.5967 24.8809 12.7311 24.7326 12.7807C24.5438 12.8433 24.5136 12.9141 24.3498 13.0958C24.1862 13.2774 19.129 18.89 18.9163 19.126C18.7036 19.3621 18.5007 19.7226 18.5999 19.9527C18.8021 20.4197 18.4271 20.5797 18.7988 20.903L22.7347 24.3262C23.1065 24.6495 23.2226 24.2643 23.719 24.4049C23.9635 24.4737 24.3031 24.2321 24.5159 23.996C24.7285 23.76 29.7858 18.1474 29.9494 17.9658C30.1131 17.7841 30.1808 17.746 30.2214 17.5544Z" fill="#13263D"/>
<line x1="17.9784" y1="15.9726" x2="20.2247" y2="17.9611" stroke="#13263D" stroke-width="0.75" stroke-linecap="round"/>
<path d="M13.426 12.1467L17.0652 10.4726C17.2158 10.4035 17.3984 10.395 17.5483 10.4507C17.6983 10.5067 17.8022 10.6189 17.8214 10.7518L18.3071 14.1109L21.2075 13.7062C21.5849 13.6535 21.9267 13.8536 21.9696 14.1508C22.008 14.4159 21.7958 14.6711 21.4816 14.7603L21.5374 21.5784C21.5411 21.9946 21.1505 22.364 20.6283 22.4369L17.3994 22.8874C16.8776 22.9603 16.3975 22.7132 16.283 22.3122L14.4039 15.749C14.0769 15.7493 13.801 15.5611 13.7627 15.296C13.7197 14.9988 13.9903 14.7133 14.3687 14.6605L17.2742 14.255L16.8733 11.482L13.9002 12.85C13.6489 12.9664 13.3363 12.9036 13.2049 12.7094C13.0731 12.5149 13.1723 12.2634 13.426 12.1467ZM16.3293 19.9739L20.8421 20.6914L20.8163 17.5833L15.3981 16.7215L16.3293 19.9739Z" fill="#13263D"/>
<path d="M7.20001 50.6545L6.70001 45.1545H28.2L27.7 50.6545H7.20001Z" fill="#C62860"/>
<path d="M6.70001 45.1545L6.20001 39.1545H28.7L28.2 45.1545H6.70001Z" fill="#C62860"/>
<path d="M6.20001 39.1545L5.20001 31.1545H29.7L28.7 39.1545H6.20001Z" fill="#C62860"/>
<path d="M5.20001 31.1546L4.20001 22.1546H30.2L29.7 31.1546H5.20001Z" fill="#C62860"/>
<path d="M7.11475 51.2678L4.43801 21.8519H30.5037L27.8269 51.2678C27.7683 51.9116 27.2285 52.4046 26.5821 52.4046H8.35961C7.71314 52.4046 7.17333 51.9116 7.11475 51.2678Z" stroke="#13263D" stroke-width="1.5"/>
<line x1="7.28336" y1="44.773" x2="27.6584" y2="44.773" stroke="#13263D" stroke-width="1.5" stroke-linecap="square"/>
<line x1="0.75" y1="-0.75" x2="31.3358" y2="-0.75" transform="matrix(0.0454511 0.998967 -0.99876 0.0497771 9.45001 21.1019)" stroke="#13263D" stroke-width="1.5" stroke-linecap="round"/>
<line x1="26.95" y1="51.9045" x2="7.45001" y2="51.9045" stroke="#13263D" stroke-width="1.5" stroke-linecap="round"/>
<line x1="27.825" y1="50.9045" x2="7.45001" y2="50.9045" stroke="#13263D" stroke-width="1.5" stroke-linecap="round"/>
<line x1="0.75" y1="-0.75" x2="31.3358" y2="-0.75" transform="matrix(-0.0454511 0.998967 -0.99876 -0.0497771 24.0334 21.1019)" stroke="#13263D" stroke-width="1.5" stroke-linecap="round"/>
<line x1="17.4917" y1="21.8519" x2="17.4917" y2="52.4046" stroke="#13263D" stroke-width="1.5" stroke-linecap="round"/>
<path d="M6.53336 38.6545L28.5334 38.6545" stroke="#13263D" stroke-width="1.5" stroke-linecap="square"/>
<line x1="5.82501" y1="31.0361" x2="29.1167" y2="31.0361" stroke="#13263D" stroke-width="1.5" stroke-linecap="round"/>
<path d="M1.45002 20.6282C1.45002 21.3186 2.00967 21.8782 2.70002 21.8782H32.2213C32.9166 21.8782 33.4783 21.3108 33.4712 20.6155L33.4653 20.0366C33.4584 19.3512 32.9008 18.7993 32.2154 18.7993H2.70002C2.00966 18.7993 1.45002 19.3589 1.45002 20.0493L1.45002 20.6282Z" fill="#146B91" stroke="#13263D" stroke-width="1.5"/>
<path d="M8.98103 65.11V57.8373H10.5187V61.0439H10.6145L13.2317 57.8373H15.0748L12.3759 61.0937L15.1067 65.11H13.2672L11.2751 62.1199L10.5187 63.0432V65.11H8.98103ZM17.9112 65.2165C17.3596 65.2165 16.8826 65.0993 16.4801 64.865C16.08 64.6282 15.7711 64.2992 15.5533 63.8778C15.3355 63.454 15.2266 62.9627 15.2266 62.404C15.2266 61.8406 15.3355 61.3482 15.5533 60.9268C15.7711 60.503 16.08 60.1739 16.4801 59.9395C16.8826 59.7028 17.3596 59.5844 17.9112 59.5844C18.4629 59.5844 18.9387 59.7028 19.3388 59.9395C19.7413 60.1739 20.0514 60.503 20.2692 60.9268C20.487 61.3482 20.5959 61.8406 20.5959 62.404C20.5959 62.9627 20.487 63.454 20.2692 63.8778C20.0514 64.2992 19.7413 64.6282 19.3388 64.865C18.9387 65.0993 18.4629 65.2165 17.9112 65.2165ZM17.9183 64.0447C18.1693 64.0447 18.3788 63.9736 18.5469 63.8316C18.715 63.6872 18.8416 63.4907 18.9269 63.2421C19.0145 62.9935 19.0583 62.7106 19.0583 62.3934C19.0583 62.0761 19.0145 61.7932 18.9269 61.5447C18.8416 61.2961 18.715 61.0996 18.5469 60.9552C18.3788 60.8108 18.1693 60.7386 17.9183 60.7386C17.665 60.7386 17.452 60.8108 17.2791 60.9552C17.1087 61.0996 16.9797 61.2961 16.8921 61.5447C16.8068 61.7932 16.7642 62.0761 16.7642 62.3934C16.7642 62.7106 16.8068 62.9935 16.8921 63.2421C16.9797 63.4907 17.1087 63.6872 17.2791 63.8316C17.452 63.9736 17.665 64.0447 17.9183 64.0447ZM26.1179 61.2109L24.733 61.2961C24.7093 61.1777 24.6584 61.0712 24.5803 60.9765C24.5022 60.8794 24.3992 60.8025 24.2713 60.7457C24.1459 60.6865 23.9955 60.6569 23.8203 60.6569C23.586 60.6569 23.3883 60.7066 23.2273 60.806C23.0663 60.9031 22.9858 61.0333 22.9858 61.1966C22.9858 61.3269 23.0379 61.4369 23.1421 61.5269C23.2462 61.6169 23.425 61.6891 23.6783 61.7435L24.6655 61.9424C25.1958 62.0513 25.5912 62.2265 25.8516 62.468C26.112 62.7094 26.2422 63.0267 26.2422 63.4197C26.2422 63.7771 26.1369 64.0908 25.9262 64.3607C25.7178 64.6306 25.4314 64.8413 25.0668 64.9928C24.7046 65.142 24.2867 65.2165 23.8132 65.2165C23.0912 65.2165 22.5159 65.0662 22.0874 64.7655C21.6612 64.4625 21.4115 64.0506 21.3381 63.5297L22.826 63.4516C22.871 63.6718 22.9799 63.8399 23.1527 63.9559C23.3255 64.0695 23.5469 64.1263 23.8168 64.1263C24.0819 64.1263 24.295 64.0754 24.456 63.9736C24.6193 63.8695 24.7022 63.7357 24.7046 63.5724C24.7022 63.435 24.6442 63.3226 24.5306 63.235C24.4169 63.145 24.2417 63.0764 24.005 63.029L23.0604 62.8408C22.5277 62.7343 22.1312 62.5496 21.8708 62.2868C21.6127 62.0241 21.4837 61.6891 21.4837 61.2819C21.4837 60.9315 21.5784 60.6296 21.7678 60.3763C21.9595 60.123 22.2282 59.9277 22.5739 59.7904C22.9219 59.6531 23.3291 59.5844 23.7955 59.5844C24.4844 59.5844 25.0265 59.73 25.4219 60.0212C25.8196 60.3124 26.0516 60.709 26.1179 61.2109ZM23.1137 57.3898L23.8274 58.2563L24.5412 57.3898H25.8303V57.4395L24.3885 59.002H23.2628L21.8246 57.4395V57.3898H23.1137Z" fill="#13263D"/>
</svg>

