<svg width="34" height="64" viewBox="0 0 34 64" fill="none" xmlns="http://www.w3.org/2000/svg">
<path d="M9.09578 10.0994C8.59388 10.0994 8.14644 10.0071 7.75345 9.82244C7.36282 9.63778 7.05269 9.38329 6.82305 9.05895C6.59341 8.73461 6.47385 8.36293 6.46438 7.94389H7.95586C7.97243 8.22562 8.0908 8.45407 8.31097 8.62926C8.53114 8.80445 8.79274 8.89205 9.09578 8.89205C9.33725 8.89205 9.55032 8.83878 9.73498 8.73224C9.92201 8.62334 10.0676 8.47301 10.1718 8.28125C10.2783 8.08712 10.3316 7.86458 10.3316 7.61364C10.3316 7.35795 10.2771 7.13305 10.1682 6.93892C10.0617 6.74479 9.91372 6.59328 9.72433 6.48438C9.53493 6.37547 9.31831 6.31984 9.07447 6.31747C8.8614 6.31747 8.65425 6.36127 8.45302 6.44886C8.25416 6.53646 8.09909 6.65601 7.98782 6.80753L6.62063 6.5625L6.96509 2.72727H11.4111V3.98438H8.23285L8.04464 5.80611H8.08725C8.21509 5.62618 8.40804 5.47704 8.66609 5.35866C8.92414 5.24029 9.21296 5.18111 9.53257 5.18111C9.97054 5.18111 10.3612 5.28409 10.7044 5.49006C11.0477 5.69602 11.3188 5.97893 11.5177 6.33878C11.7165 6.69626 11.8148 7.10819 11.8124 7.57457C11.8148 8.06463 11.7011 8.50024 11.4715 8.88139C11.2442 9.26018 10.9258 9.55848 10.5162 9.77628C10.109 9.99171 9.63555 10.0994 9.09578 10.0994ZM15.7364 10.1598C15.1256 10.1574 14.6 10.0071 14.1597 9.70881C13.7217 9.41051 13.3844 8.97846 13.1476 8.41264C12.9132 7.84683 12.7972 7.16619 12.7996 6.37074C12.7996 5.57765 12.9168 4.90175 13.1512 4.34304C13.3879 3.78433 13.7253 3.35937 14.1632 3.06818C14.6036 2.77462 15.128 2.62784 15.7364 2.62784C16.3448 2.62784 16.868 2.77462 17.306 3.06818C17.7463 3.36174 18.0849 3.78788 18.3216 4.34659C18.5584 4.90294 18.6756 5.57765 18.6732 6.37074C18.6732 7.16856 18.5548 7.85038 18.3181 8.41619C18.0837 8.98201 17.7475 9.41406 17.3096 9.71236C16.8716 10.0107 16.3472 10.1598 15.7364 10.1598ZM15.7364 8.88494C16.1531 8.88494 16.4857 8.67543 16.7343 8.25639C16.9828 7.83736 17.106 7.20881 17.1036 6.37074C17.1036 5.81913 17.0468 5.35985 16.9331 4.9929C16.8219 4.62595 16.6632 4.35014 16.4573 4.16548C16.2537 3.98082 16.0134 3.88849 15.7364 3.88849C15.3221 3.88849 14.9907 4.09564 14.7421 4.50994C14.4935 4.92424 14.368 5.54451 14.3657 6.37074C14.3657 6.92945 14.4213 7.39583 14.5326 7.76989C14.6462 8.14157 14.806 8.42093 15.012 8.60795C15.2179 8.79261 15.4594 8.88494 15.7364 8.88494ZM23.7504 8.63636V8.25284C23.7504 7.96165 23.812 7.69413 23.9351 7.45028C24.0606 7.20407 24.2417 7.00758 24.4784 6.8608C24.7175 6.71165 25.0087 6.63707 25.352 6.63707C25.7 6.63707 25.9924 6.71046 26.2291 6.85724C26.4682 7.00402 26.6482 7.20052 26.7689 7.44673C26.892 7.69058 26.9536 7.95928 26.9536 8.25284V8.63636C26.9536 8.92756 26.892 9.19626 26.7689 9.44247C26.6458 9.68632 26.4647 9.88163 26.2256 10.0284C25.9865 10.1776 25.6953 10.2521 25.352 10.2521C25.004 10.2521 24.7116 10.1776 24.4749 10.0284C24.2381 9.88163 24.0582 9.68632 23.9351 9.44247C23.812 9.19626 23.7504 8.92756 23.7504 8.63636ZM24.7838 8.25284V8.63636C24.7838 8.80445 24.8241 8.96307 24.9045 9.11222C24.9874 9.26136 25.1366 9.33594 25.352 9.33594C25.5674 9.33594 25.7142 9.26255 25.7923 9.11577C25.8728 8.96899 25.9131 8.80919 25.9131 8.63636V8.25284C25.9131 8.08002 25.8752 7.91903 25.7994 7.76989C25.7237 7.62074 25.5745 7.54616 25.352 7.54616C25.1389 7.54616 24.991 7.62074 24.9081 7.76989C24.8252 7.91903 24.7838 8.08002 24.7838 8.25284ZM20.0182 4.47443V4.09091C20.0182 3.79735 20.0809 3.52865 20.2064 3.2848C20.3319 3.03859 20.513 2.84209 20.7497 2.69531C20.9888 2.54853 21.2777 2.47514 21.6162 2.47514C21.9666 2.47514 22.2601 2.54853 22.4969 2.69531C22.7336 2.84209 22.9135 3.03859 23.0366 3.2848C23.1598 3.52865 23.2213 3.79735 23.2213 4.09091V4.47443C23.2213 4.76799 23.1586 5.03669 23.0331 5.28054C22.91 5.52438 22.7289 5.7197 22.4898 5.86648C22.253 6.01089 21.9618 6.0831 21.6162 6.0831C21.2706 6.0831 20.9782 6.00971 20.7391 5.86293C20.5023 5.71378 20.3224 5.51847 20.1993 5.27699C20.0786 5.03314 20.0182 4.76562 20.0182 4.47443ZM21.0587 4.09091V4.47443C21.0587 4.64725 21.0989 4.80705 21.1794 4.95384C21.2623 5.10062 21.4079 5.17401 21.6162 5.17401C21.834 5.17401 21.982 5.10062 22.0601 4.95384C22.1406 4.80705 22.1808 4.64725 22.1808 4.47443V4.09091C22.1808 3.91809 22.1429 3.7571 22.0672 3.60795C21.9914 3.45881 21.8411 3.38423 21.6162 3.38423C21.4055 3.38423 21.2599 3.45999 21.1794 3.61151C21.0989 3.76302 21.0587 3.92282 21.0587 4.09091ZM20.4869 10L25.4869 2.72727H26.4173L21.4173 10H20.4869Z" fill="#C8A448"/>
<path d="M6.58002 46.6053L6.08002 41.1053H27.58L27.08 46.6053H6.58002Z" fill="#C8A448"/>
<path d="M6.08002 41.1053L5.58002 35.1053H28.08L27.58 41.1053H6.08002Z" fill="#C8A448"/>
<path d="M5.58002 35.1053L4.58002 27.1053H29.08L28.08 35.1053H5.58002Z" fill="#233E65" fill-opacity="0.5"/>
<path d="M4.58002 27.1053L3.58002 18.1053H29.58L29.08 27.1053H4.58002Z" fill="#233E65" fill-opacity="0.5"/>
<path d="M6.49479 47.2185L3.81805 17.8026H29.8837L27.207 47.2185C27.1484 47.8623 26.6086 48.3553 25.9621 48.3553H7.73964C7.09318 48.3553 6.55337 47.8623 6.49479 47.2185Z" stroke="#13263D" stroke-width="1.5"/>
<line x1="6.66333" y1="40.7237" x2="27.0383" y2="40.7237" stroke="#13263D" stroke-width="1.5" stroke-linecap="square"/>
<line x1="0.75" y1="-0.75" x2="31.3358" y2="-0.75" transform="matrix(0.0454511 0.998967 -0.99876 0.0497771 8.83002 17.0526)" stroke="#13263D" stroke-width="1.5" stroke-linecap="round"/>
<line x1="26.33" y1="47.8553" x2="6.83002" y2="47.8553" stroke="#13263D" stroke-width="1.5" stroke-linecap="round"/>
<line x1="27.205" y1="46.8553" x2="6.83002" y2="46.8553" stroke="#13263D" stroke-width="1.5" stroke-linecap="round"/>
<line x1="0.75" y1="-0.75" x2="31.3358" y2="-0.75" transform="matrix(-0.0454511 0.998967 -0.99876 -0.0497771 23.4133 17.0526)" stroke="#13263D" stroke-width="1.5" stroke-linecap="round"/>
<line x1="16.8717" y1="17.8026" x2="16.8717" y2="48.3553" stroke="#13263D" stroke-width="1.5" stroke-linecap="round"/>
<path d="M5.91333 34.6053L27.9133 34.6053" stroke="#13263D" stroke-width="1.5" stroke-linecap="square"/>
<line x1="5.20502" y1="26.9868" x2="28.4967" y2="26.9868" stroke="#13263D" stroke-width="1.5" stroke-linecap="round"/>
<path d="M0.830027 16.579C0.830029 17.2693 1.38967 17.8289 2.08003 17.8289H31.6013C32.2966 17.8289 32.8583 17.2615 32.8512 16.5663L32.8453 15.9873C32.8384 15.3019 32.2808 14.75 31.5954 14.75H2.08003C1.38967 14.75 0.830022 15.3096 0.830025 16L0.830027 16.579Z" fill="#146B91" stroke="#13263D" stroke-width="1.5"/>
<path d="M8.36103 61.11V53.8373H9.89867V57.0439H9.99455L12.6117 53.8373H14.4548L11.7559 57.0937L14.4867 61.11H12.6472L10.6551 58.1199L9.89867 59.0432V61.11H8.36103ZM17.2912 61.2165C16.7396 61.2165 16.2626 61.0993 15.8601 60.865C15.46 60.6282 15.1511 60.2992 14.9333 59.8778C14.7155 59.454 14.6066 58.9627 14.6066 58.404C14.6066 57.8406 14.7155 57.3482 14.9333 56.9268C15.1511 56.503 15.46 56.1739 15.8601 55.9395C16.2626 55.7028 16.7396 55.5844 17.2912 55.5844C17.8429 55.5844 18.3187 55.7028 18.7188 55.9395C19.1213 56.1739 19.4314 56.503 19.6492 56.9268C19.867 57.3482 19.9759 57.8406 19.9759 58.404C19.9759 58.9627 19.867 59.454 19.6492 59.8778C19.4314 60.2992 19.1213 60.6282 18.7188 60.865C18.3187 61.0993 17.8429 61.2165 17.2912 61.2165ZM17.2983 60.0447C17.5493 60.0447 17.7588 59.9736 17.9269 59.8316C18.095 59.6872 18.2216 59.4907 18.3069 59.2421C18.3945 58.9935 18.4383 58.7106 18.4383 58.3934C18.4383 58.0761 18.3945 57.7932 18.3069 57.5447C18.2216 57.2961 18.095 57.0996 17.9269 56.9552C17.7588 56.8108 17.5493 56.7386 17.2983 56.7386C17.045 56.7386 16.832 56.8108 16.6591 56.9552C16.4887 57.0996 16.3597 57.2961 16.2721 57.5447C16.1868 57.7932 16.1442 58.0761 16.1442 58.3934C16.1442 58.7106 16.1868 58.9935 16.2721 59.2421C16.3597 59.4907 16.4887 59.6872 16.6591 59.8316C16.832 59.9736 17.045 60.0447 17.2983 60.0447ZM25.4979 57.2109L24.113 57.2961C24.0893 57.1777 24.0384 57.0712 23.9603 56.9765C23.8822 56.8794 23.7792 56.8025 23.6513 56.7457C23.5259 56.6865 23.3755 56.6569 23.2003 56.6569C22.966 56.6569 22.7683 56.7066 22.6073 56.806C22.4463 56.9031 22.3658 57.0333 22.3658 57.1966C22.3658 57.3269 22.4179 57.4369 22.5221 57.5269C22.6262 57.6169 22.805 57.6891 23.0583 57.7435L24.0455 57.9424C24.5758 58.0513 24.9712 58.2265 25.2316 58.468C25.492 58.7094 25.6222 59.0267 25.6222 59.4197C25.6222 59.7771 25.5169 60.0908 25.3062 60.3607C25.0978 60.6306 24.8114 60.8413 24.4468 60.9928C24.0846 61.142 23.6667 61.2165 23.1932 61.2165C22.4712 61.2165 21.8959 61.0662 21.4674 60.7655C21.0412 60.4625 20.7915 60.0506 20.7181 59.5297L22.206 59.4516C22.251 59.6718 22.3599 59.8399 22.5327 59.9559C22.7055 60.0695 22.9269 60.1263 23.1968 60.1263C23.4619 60.1263 23.675 60.0754 23.836 59.9736C23.9993 59.8695 24.0822 59.7357 24.0846 59.5724C24.0822 59.435 24.0242 59.3226 23.9106 59.235C23.7969 59.145 23.6217 59.0764 23.385 59.029L22.4404 58.8408C21.9077 58.7343 21.5112 58.5496 21.2508 58.2868C20.9927 58.0241 20.8637 57.6891 20.8637 57.2819C20.8637 56.9315 20.9584 56.6296 21.1478 56.3763C21.3395 56.123 21.6082 55.9277 21.9539 55.7904C22.3019 55.6531 22.7091 55.5844 23.1755 55.5844C23.8644 55.5844 24.4065 55.73 24.8019 56.0212C25.1996 56.3124 25.4316 56.709 25.4979 57.2109ZM22.4937 53.3898L23.2074 54.2563L23.9212 53.3898H25.2103V53.4395L23.7685 55.002H22.6428L21.2046 53.4395V53.3898H22.4937Z" fill="#13263D"/>
</svg>

