<svg width="35" height="64" viewBox="0 0 35 64" fill="none" xmlns="http://www.w3.org/2000/svg">
<path d="M7.76711 10L10.782 4.03409V3.98438H7.26996V2.72727H12.3729V4.00213L9.35447 10H7.76711ZM15.9853 10.0994C15.4834 10.0994 15.036 10.0071 14.643 9.82244C14.2524 9.63778 13.9422 9.38329 13.7126 9.05895C13.483 8.73461 13.3634 8.36293 13.3539 7.94389H14.8454C14.862 8.22562 14.9804 8.45407 15.2005 8.62926C15.4207 8.80445 15.6823 8.89205 15.9853 8.89205C16.2268 8.89205 16.4399 8.83878 16.6245 8.73224C16.8116 8.62334 16.9572 8.47301 17.0613 8.28125C17.1679 8.08712 17.2211 7.86458 17.2211 7.61364C17.2211 7.35795 17.1667 7.13305 17.0578 6.93892C16.9512 6.74479 16.8033 6.59328 16.6139 6.48438C16.4245 6.37547 16.2079 6.31984 15.964 6.31747C15.751 6.31747 15.5438 6.36127 15.3426 6.44886C15.1437 6.53646 14.9886 6.65601 14.8774 6.80753L13.5102 6.5625L13.8547 2.72727H18.3007V3.98438H15.1224L14.9342 5.80611H14.9768C15.1047 5.62618 15.2976 5.47704 15.5556 5.35866C15.8137 5.24029 16.1025 5.18111 16.4221 5.18111C16.8601 5.18111 17.2507 5.28409 17.594 5.49006C17.9373 5.69602 18.2083 5.97893 18.4072 6.33878C18.6061 6.69626 18.7043 7.10819 18.702 7.57457C18.7043 8.06463 18.5907 8.50024 18.361 8.88139C18.1338 9.26018 17.8154 9.55848 17.4058 9.77628C16.9986 9.99171 16.5251 10.0994 15.9853 10.0994ZM23.7552 8.63636V8.25284C23.7552 7.96165 23.8168 7.69413 23.9399 7.45028C24.0654 7.20407 24.2465 7.00758 24.4832 6.8608C24.7223 6.71165 25.0135 6.63707 25.3568 6.63707C25.7048 6.63707 25.9972 6.71046 26.2339 6.85724C26.473 7.00402 26.6529 7.20052 26.7737 7.44673C26.8968 7.69058 26.9583 7.95928 26.9583 8.25284V8.63636C26.9583 8.92756 26.8968 9.19626 26.7737 9.44247C26.6506 9.68632 26.4695 9.88163 26.2304 10.0284C25.9913 10.1776 25.7001 10.2521 25.3568 10.2521C25.0088 10.2521 24.7164 10.1776 24.4797 10.0284C24.2429 9.88163 24.063 9.68632 23.9399 9.44247C23.8168 9.19626 23.7552 8.92756 23.7552 8.63636ZM24.7886 8.25284V8.63636C24.7886 8.80445 24.8288 8.96307 24.9093 9.11222C24.9922 9.26136 25.1413 9.33594 25.3568 9.33594C25.5722 9.33594 25.719 9.26255 25.7971 9.11577C25.8776 8.96899 25.9179 8.80919 25.9179 8.63636V8.25284C25.9179 8.08002 25.88 7.91903 25.8042 7.76989C25.7285 7.62074 25.5793 7.54616 25.3568 7.54616C25.1437 7.54616 24.9957 7.62074 24.9129 7.76989C24.83 7.91903 24.7886 8.08002 24.7886 8.25284ZM20.023 4.47443V4.09091C20.023 3.79735 20.0857 3.52865 20.2112 3.2848C20.3367 3.03859 20.5178 2.84209 20.7545 2.69531C20.9936 2.54853 21.2824 2.47514 21.621 2.47514C21.9714 2.47514 22.2649 2.54853 22.5017 2.69531C22.7384 2.84209 22.9183 3.03859 23.0414 3.2848C23.1645 3.52865 23.2261 3.79735 23.2261 4.09091V4.47443C23.2261 4.76799 23.1634 5.03669 23.0379 5.28054C22.9148 5.52438 22.7337 5.7197 22.4946 5.86648C22.2578 6.01089 21.9666 6.0831 21.621 6.0831C21.2753 6.0831 20.983 6.00971 20.7439 5.86293C20.5071 5.71378 20.3272 5.51847 20.2041 5.27699C20.0833 5.03314 20.023 4.76562 20.023 4.47443ZM21.0635 4.09091V4.47443C21.0635 4.64725 21.1037 4.80705 21.1842 4.95384C21.2671 5.10062 21.4127 5.17401 21.621 5.17401C21.8388 5.17401 21.9868 5.10062 22.0649 4.95384C22.1454 4.80705 22.1856 4.64725 22.1856 4.47443V4.09091C22.1856 3.91809 22.1477 3.7571 22.072 3.60795C21.9962 3.45881 21.8459 3.38423 21.621 3.38423C21.4103 3.38423 21.2647 3.45999 21.1842 3.61151C21.1037 3.76302 21.0635 3.92282 21.0635 4.09091ZM20.4917 10L25.4917 2.72727H26.4221L21.4221 10H20.4917Z" fill="#D98446"/>
<path d="M7.12 46.6053L6.62 41.1053H28.12L27.62 46.6053H7.12Z" fill="#D98446"/>
<path d="M6.62 41.1053L6.12 35.1053H28.62L28.12 41.1053H6.62Z" fill="#D98446"/>
<path d="M6.12 35.1053L5.12 27.1053H29.62L28.62 35.1053H6.12Z" fill="#D98446"/>
<path d="M5.12 27.1053L4.12 18.1053H30.12L29.62 27.1053H5.12Z" fill="#233E65" fill-opacity="0.5"/>
<path d="M7.03473 47.2185L4.358 17.8026H30.4236L27.7469 47.2185C27.6883 47.8623 27.1485 48.3553 26.502 48.3553H8.27959C7.63313 48.3553 7.09332 47.8623 7.03473 47.2185Z" stroke="#13263D" stroke-width="1.5"/>
<line x1="7.20334" y1="40.7237" x2="27.5783" y2="40.7237" stroke="#13263D" stroke-width="1.5" stroke-linecap="square"/>
<line x1="0.75" y1="-0.75" x2="31.3358" y2="-0.75" transform="matrix(0.0454511 0.998967 -0.99876 0.0497771 9.37 17.0526)" stroke="#13263D" stroke-width="1.5" stroke-linecap="round"/>
<line x1="26.87" y1="47.8553" x2="7.37" y2="47.8553" stroke="#13263D" stroke-width="1.5" stroke-linecap="round"/>
<line x1="27.745" y1="46.8553" x2="7.37" y2="46.8553" stroke="#13263D" stroke-width="1.5" stroke-linecap="round"/>
<line x1="0.75" y1="-0.75" x2="31.3358" y2="-0.75" transform="matrix(-0.0454511 0.998967 -0.99876 -0.0497771 23.9533 17.0526)" stroke="#13263D" stroke-width="1.5" stroke-linecap="round"/>
<line x1="17.4117" y1="17.8026" x2="17.4117" y2="48.3553" stroke="#13263D" stroke-width="1.5" stroke-linecap="round"/>
<path d="M6.45334 34.6053L28.4533 34.6053" stroke="#13263D" stroke-width="1.5" stroke-linecap="square"/>
<line x1="5.745" y1="26.9868" x2="29.0367" y2="26.9868" stroke="#13263D" stroke-width="1.5" stroke-linecap="round"/>
<path d="M1.37 16.579C1.37001 17.2693 1.92965 17.8289 2.62 17.8289H32.1412C32.8366 17.8289 33.3982 17.2615 33.3912 16.5663L33.3853 15.9873C33.3783 15.3019 32.8208 14.75 32.1354 14.75H2.62C1.92965 14.75 1.37 15.3096 1.37 16L1.37 16.579Z" fill="#146B91" stroke="#13263D" stroke-width="1.5"/>
<path d="M8.901 61.11V53.8373H10.4386V57.0439H10.5345L13.1517 53.8373H14.9948L12.2959 57.0937L15.0267 61.11H13.1872L11.195 58.1199L10.4386 59.0432V61.11H8.901ZM17.8312 61.2165C17.2796 61.2165 16.8026 61.0993 16.4001 60.865C16 60.6282 15.6911 60.2992 15.4733 59.8778C15.2555 59.454 15.1466 58.9627 15.1466 58.404C15.1466 57.8406 15.2555 57.3482 15.4733 56.9268C15.6911 56.503 16 56.1739 16.4001 55.9395C16.8026 55.7028 17.2796 55.5844 17.8312 55.5844C18.3828 55.5844 18.8587 55.7028 19.2588 55.9395C19.6612 56.1739 19.9714 56.503 20.1892 56.9268C20.407 57.3482 20.5159 57.8406 20.5159 58.404C20.5159 58.9627 20.407 59.454 20.1892 59.8778C19.9714 60.2992 19.6612 60.6282 19.2588 60.865C18.8587 61.0993 18.3828 61.2165 17.8312 61.2165ZM17.8383 60.0447C18.0893 60.0447 18.2988 59.9736 18.4669 59.8316C18.635 59.6872 18.7616 59.4907 18.8468 59.2421C18.9344 58.9935 18.9782 58.7106 18.9782 58.3934C18.9782 58.0761 18.9344 57.7932 18.8468 57.5447C18.7616 57.2961 18.635 57.0996 18.4669 56.9552C18.2988 56.8108 18.0893 56.7386 17.8383 56.7386C17.585 56.7386 17.3719 56.8108 17.1991 56.9552C17.0287 57.0996 16.8996 57.2961 16.812 57.5447C16.7268 57.7932 16.6842 58.0761 16.6842 58.3934C16.6842 58.7106 16.7268 58.9935 16.812 59.2421C16.8996 59.4907 17.0287 59.6872 17.1991 59.8316C17.3719 59.9736 17.585 60.0447 17.8383 60.0447ZM26.0379 57.2109L24.653 57.2961C24.6293 57.1777 24.5784 57.0712 24.5003 56.9765C24.4221 56.8794 24.3192 56.8025 24.1913 56.7457C24.0658 56.6865 23.9155 56.6569 23.7403 56.6569C23.5059 56.6569 23.3083 56.7066 23.1473 56.806C22.9863 56.9031 22.9058 57.0333 22.9058 57.1966C22.9058 57.3269 22.9579 57.4369 23.062 57.5269C23.1662 57.6169 23.345 57.6891 23.5983 57.7435L24.5855 57.9424C25.1158 58.0513 25.5111 58.2265 25.7716 58.468C26.032 58.7094 26.1622 59.0267 26.1622 59.4197C26.1622 59.7771 26.0568 60.0908 25.8461 60.3607C25.6378 60.6306 25.3513 60.8413 24.9868 60.9928C24.6245 61.142 24.2067 61.2165 23.7332 61.2165C23.0111 61.2165 22.4359 61.0662 22.0074 60.7655C21.5812 60.4625 21.3315 60.0506 21.2581 59.5297L22.746 59.4516C22.791 59.6718 22.8999 59.8399 23.0727 59.9559C23.2455 60.0695 23.4669 60.1263 23.7368 60.1263C24.0019 60.1263 24.215 60.0754 24.376 59.9736C24.5393 59.8695 24.6222 59.7357 24.6245 59.5724C24.6222 59.435 24.5642 59.3226 24.4505 59.235C24.3369 59.145 24.1617 59.0764 23.925 59.029L22.9804 58.8408C22.4477 58.7343 22.0512 58.5496 21.7907 58.2868C21.5327 58.0241 21.4037 57.6891 21.4037 57.2819C21.4037 56.9315 21.4984 56.6296 21.6878 56.3763C21.8795 56.123 22.1482 55.9277 22.4939 55.7904C22.8419 55.6531 23.2491 55.5844 23.7155 55.5844C24.4044 55.5844 24.9465 55.73 25.3419 56.0212C25.7396 56.3124 25.9716 56.709 26.0379 57.2109ZM23.0336 53.3898L23.7474 54.2563L24.4612 53.3898H25.7503V53.4395L24.3085 55.002H23.1828L21.7446 53.4395V53.3898H23.0336Z" fill="#13263D"/>
</svg>

