<svg width="62" height="12" viewBox="0 0 62 12" fill="none" xmlns="http://www.w3.org/2000/svg">
<path d="M54.5 8.5C54.5 9.60457 55.3954 10.5 56.5 10.5L60 10.5C61.1046 10.5 62 9.60457 62 8.5L62 1.25C62 1.11193 61.8881 1 61.75 1L60.75 1C60.6119 1 60.5 1.11193 60.5 1.25L60.5 8C60.5 8.27614 60.2761 8.5 60 8.5L56.5 8.5C56.2239 8.5 56 8.27614 56 8L56 5.5C56 5.22386 56.2239 5 56.5 5L59.25 5C59.3881 5 59.5 4.88807 59.5 4.75L59.5 3.25C59.5 3.11193 59.3881 3 59.25 3L56.5 3C55.3954 3 54.5 3.89543 54.5 5L54.5 8.5Z" fill="#002030"/>
<path d="M36.5 2.5C36.5 1.39543 37.3954 0.5 38.5 0.5H39.5C40.6046 0.5 41.5 1.39543 41.5 2.5V8.0541C41.5 8.30036 41.6996 8.5 41.9459 8.5V8.5C42.3007 8.5 42.6409 8.35906 42.8918 8.10819L44.0799 6.9201C44.3593 6.64072 44.6104 6.33442 44.8296 6.00566L45.9063 4.3906C46.2772 3.8342 46.9017 3.5 47.5704 3.5H51C52.1046 3.5 53 4.39543 53 5.5V8.5C53 9.60457 52.1046 10.5 51 10.5H42C40.8954 10.5 40 9.60457 40 8.5V8.5V2.5C40 2.22386 39.7761 2 39.5 2H38.5C38.2239 2 38 2.22386 38 2.5V4.5C38 4.77614 38.2239 5 38.5 5H39.25C39.3881 5 39.5 5.11193 39.5 5.25V6.25C39.5 6.38807 39.3881 6.5 39.25 6.5H38.5C37.3954 6.5 36.5 5.60457 36.5 4.5V2.5Z" fill="#47849A"/>
<path d="M45.5 5.5C45.5 4.39543 46.3954 3.5 47.5 3.5H49.5V5H47.5C47.2239 5 47 5.22386 47 5.5V8.5C47 8.77614 47.2239 9 47.5 9H51C51.2761 9 51.5 8.77614 51.5 8.5V5.5C51.5 5.22386 51.2761 5 51 5H49.5V3.5H51C52.1046 3.5 53 4.39543 53 5.5V8.5C53 9.60457 52.1046 10.5 51 10.5H47.5C46.3954 10.5 45.5 9.60457 45.5 8.5V5.5Z" fill="#002030"/>
<path d="M40 2.5C40 1.39543 40.8954 0.5 42 0.5H43C44.1046 0.5 45 1.39543 45 2.5V4.5C45 5.60457 44.1046 6.5 43 6.5H42.25C42.1119 6.5 42 6.38807 42 6.25V5.25C42 5.11193 42.1119 5 42.25 5H43C43.2761 5 43.5 4.77614 43.5 4.5V2.5C43.5 2.22386 43.2761 2 43 2H42C41.7239 2 41.5 2.22386 41.5 2.5V8C41.5 8.27614 41.2761 8.5 41 8.5H40.5C40.2239 8.5 40 8.27614 40 8V2.5Z" fill="#002030"/>
<path d="M49.8675 5.89737C49.9466 5.66006 50.1687 5.5 50.4189 5.5V5.5C50.7398 5.5 51 5.76018 51 6.08114V6.08114C51 6.33128 50.8399 6.55335 50.6026 6.63246V6.63246C50.1483 6.78389 49.7161 6.35168 49.8675 5.89737V5.89737Z" fill="#00202B"/>
<path d="M29.5 4C29.5 3.72386 29.7239 3.5 30 3.5H33.5C34.6046 3.5 35.5 4.39543 35.5 5.5V7.5C35.5 9.15685 34.1569 10.5 32.5 10.5H30.25C29.0074 10.5 28 9.49264 28 8.25V8.25C28 7.00736 29.0074 6 30.25 6H32.5C32.7761 6 33 6.22386 33 6.5V7C33 7.27614 32.7761 7.5 32.5 7.5H30C29.7239 7.5 29.5 7.72386 29.5 8V8C29.5 8.27614 29.7239 8.5 30 8.5H33C33.5523 8.5 34 8.05228 34 7.5V6.5C34 5.94772 33.5523 5.5 33 5.5H30C29.7239 5.5 29.5 5.27614 29.5 5V4Z" fill="#002030"/>
<path d="M19 3.75C19 3.61193 19.1119 3.5 19.25 3.5H20.25C20.3881 3.5 20.5 3.61193 20.5 3.75V6.5C20.5 7.60457 21.3954 8.5 22.5 8.5H24.5C24.7761 8.5 25 8.27614 25 8V3.75C25 3.61193 25.1119 3.5 25.25 3.5H26.25C26.3881 3.5 26.5 3.61193 26.5 3.75V9.5C26.5 10.0523 26.0523 10.5 25.5 10.5H22C20.3431 10.5 19 9.15685 19 7.5V3.75Z" fill="#002030"/>
<path d="M10 4.5C10 3.39543 10.8954 2.5 12 2.5H15.5C16.6046 2.5 17.5 3.39543 17.5 4.5V11.75C17.5 11.8881 17.3881 12 17.25 12H16.25C16.1119 12 16 11.8881 16 11.75V5C16 4.72386 15.7761 4.5 15.5 4.5H12C11.7239 4.5 11.5 4.72386 11.5 5V7.5C11.5 7.77614 11.7239 8 12 8H14.75C14.8881 8 15 8.11193 15 8.25V9.75C15 9.88807 14.8881 10 14.75 10H12C10.8954 10 10 9.10457 10 8V4.5Z" fill="#002030"/>
<path d="M0 5.42126C0 4.49126 0.252752 3.57875 0.731234 2.78128L0.795379 2.67437C1.25557 1.90739 1.92493 1.28753 2.72495 0.887525V0.887525C3.23465 0.632677 3.79668 0.5 4.36653 0.5H7.5L7.96567 2.36268C7.98697 2.44787 7.96201 2.53799 7.89991 2.60009L7.5 3V2.56417C7.5 2.52873 7.47127 2.5 7.43583 2.5H4.26159C3.76723 2.5 3.28621 2.66034 2.89073 2.95695V2.95695C2.01524 3.61357 1.5 4.64406 1.5 5.73841V5.84211C1.5 5.92931 1.57069 6 1.65789 6H7.25C7.38807 6 7.5 5.88807 7.5 5.75V0.5V0.5C8.32843 0.5 9 1.17157 9 2V9.99594C9 9.99818 8.99818 10 8.99594 10H7.75C7.61193 10 7.5 9.88807 7.5 9.75V8.25C7.5 8.11193 7.38807 8 7.25 8H1.75C1.61193 8 1.5 8.11193 1.5 8.25V9.75C1.5 9.88807 1.38807 10 1.25 10H0.0653233C0.0292462 10 0 9.97075 0 9.93468V5.42126Z" fill="#002030"/>
</svg>